<mxfile host="app.diagrams.net" modified="2022-07-05T03:16:52.473Z" agent="5.0 (Windows NT 10.0; Win64; x64) AppleWebKit/537.36 (KHTML, like Gecko) Chrome/103.0.0.0 Safari/537.36" etag="u8CzkEQA3GJDVqHKjI_Y" version="20.0.4" type="github">
  <diagram id="DCa3cO1V_wxzjMP5Q11Q" name="Page-1">
    <mxGraphModel dx="1422" dy="762" grid="1" gridSize="10" guides="1" tooltips="1" connect="1" arrows="1" fold="1" page="1" pageScale="1" pageWidth="827" pageHeight="1169" math="0" shadow="0">
      <root>
        <mxCell id="0" />
        <mxCell id="1" parent="0" />
        <mxCell id="PmJEQbOTKtJchVZN6b2D-2" value="" style="shape=image;verticalLabelPosition=bottom;labelBackgroundColor=default;verticalAlign=top;aspect=fixed;imageAspect=0;image=data:image/png,iVBORw0KGgoAAAANSUhEUgAAAsAAAAG4CAIAAADE1MaJAAAsa0lEQVR4Xu3d3XcU17nn8fP3RBbgAHacWDIS78hWixeBQRIiwdjgGBGHtRxnTQisQ45wwswkGoPHDpPJYc0wB2exHK6cC1/MlfMnzfU83Vsq7d67dnV37V27u/b+ftazWFJV9Yu6n3rq19Ut8S9TAAAAI/oXcwEAAMAgBAgAADAyAgQAABgZAQIAAIyMAAEAAEZGgAAAACMjQAAAgJERIAAAwMgIEAAAYGQECAAAMDICBAAAGBkBAgAAjIwAAQAARkaAAAAAIyNAAACAkREgAADAyAgQAABgZAQIAAAwMgIEAAAYGQECCOy7frdv35aF8i/LWe65fGocKu4Py9NYPlUXAQIITO2ZQFg+g94H/Zw2n74iQABAC/gMesDFp68IEEBgvGJDE3wGvQ/6OW0+fUWAAALz2SEBl3H11bhuF3H4PL8ECCAwnx0ScBnXmQD6OW0+fUWAAAJj4CIl9DNcCBBAYAxcNMHnlaIP+jltPn1FgAACY+CiCePqq3HdLuLweX4JEEBgPokecPEZ9D7o57T59BUBAgBawGfQAy4+fUWAAALjFRua4DPofdDPafPpKwIEEJjPDgm4jKuvxnW7iMPn+SVAAIH57JCAy7jOBNDPafPpKwIEEBgDFymhn+FCgAACY+CiCT6vFH3Qz2nz6SsCBBAYAxdNGFdfjet2EYfP80uAAALzSfSAi8+g90E/p82nrwgQANACPoMecPHpKwIEEBiv2NAEn0Hvg35Om09fESCAwHx2SMBlXH01rttFHD7PLwECCMxnhwRcxnUmgH5Om09fESCAwBi4SAn9DBcCBBAYAxdN8Hml6IN+TptPXxEggMAYuGjCuPpqXLeLOHyeXwIEEJhPogdcfAa9D/o5bT59RYAAgBbwGfSAi09fESCAwHjFhib4DHof9HPafPqKAAEE5rNDAi7j6qtx3S7i8Hl+CRBAYD47JOAyrjMB9HPafPqKAAEExsBFSuhnuBAggMAYuGiCzytFH/Rz2nz6igABBMbARRPG1Vfjul3E4fP8EiCAwHwSPeDiM+h90M9p8+krAgQAtIDPoAdcfPqKAAEExis2NMFn0Pugn9Pm01cECCAwnx0ScBlXX43rdhGHz/NLgAAC89khAZdxnQmgn9Pm01cECCAwBi5SQj/DhQABBMbARRN8Xin6oJ/T5tNXBAggMAYumjCuvhrX7SIOn+eXAAEE5pPoARefQe+Dfk6bT18RIACgBXwGPeDi01cECCAwXrGhCT6D3gf9nDafviJAAIH57JCAy7j6aly3izh8nl8CBBCYzw4JuIzrTAD9nDafviJAAIExcJES+hkuBAggMAYumuDzStEH/Zw2n74iQACBMXDRhHH11bhuF3H4PL8ECCAwn0QPuPgMeh/0c9p8+ooAAQAt4DPoARefviJAAIHxig1N8Bn0PujntPn0FQECCMxnhwRcxtVX47pdxOHz/BIggMB8dkjAZVxnAujntPn0FQECCIyBi5TQz3AhQACBMXDRBJ9Xij7o57T59BUBAgiMgYsmjKuvxnW7iMPn+SVAAIH5JHqgcPPmzZmZmeJbfdDLcllbfNso+jltBAgASM3GxsbW1lbxrT7oZbmsLb4FaiNAABOEV2wIYnp6+unTpysrK+rbYtDLElkua3c3bRL9nDYCBDBBfHZIQLewsPDixYv9+/dP7fSVfC1LZLmxZXPo57T5PL8ECCAwnx0SMNzrmdo5E1B8Gw39nDafM0wECCAwBi4C0k856CckoqGf4UKAAAJj4CIs9aGHTz75RP9IRDT0c9o4AwFMEAYugtva2pK+0n8pIxr6OW0+z69XgJidnT2DMZEH33w+Jp75MyRqc3PTXJQi89ltM/Nnmzzr6+vffPON/GuuaF4m/VyP2UktNLYAIQ/flfXVpcWTVOS6du1aG3v3008/tX8Wqo0lT6X57LYZnUnVqDT2gnEGCHkQOwtzVORqafiV/c3+Wag2Vhqjs0BnUjUqjb2AAJFdESCo8VYao7NAZ1I1Ko29gACRXREgqPFWGqOzQGdSNSqNvWBsv4VBgBhXESCo8VYao7NAZ1I1KrG9oAYCRCuLAEGNtxIbnXQmVaPS2As4A5FdESCo8VYao7NAZ1I1Ko29gM9AZFcJBIgznaO//u3dx0+f/+o//cb+AakJrzRGZ4EAQdWoNPaCiQsQS0tzyx/NXbw7d+mzeSn5Qr6VhfaWravFW0++/sc/v7p/UV+48ej7549u2Rs3V20PEKcXj/7h8y///B8vpe5sfnbqo49P3P2vxz77H1LyhXy7uFTSV62rCemWJqoto3N67w/f/u3/fe3YgD//XB4glk6c/PkvTvxWOvPPUvKFfCsLzc2arDS6JdVqy15QbbICxNn1uUsP5lcemiULZZX9HPiX7GP2mO70xvfzb59snDpkX6RiVXWFPSTUvhuTHCBu3ry5sbExPT1trtDG9K/v3lPp4ctn3yz/l78ee/jvZj148vb6FfsH96+sukW/rcVTtx5++/3zZ5vro1yDq9oyOiVAvPuX/ydVHSNKA8TxB38+9vCvRslCe8sgVdqZMbuldlXc1uKpi3eedX8uVQ9vlWwTqiruRr0aeIWle4GMPhmAMgbNFZNqggKERAQ7OugVPEP0xuLLO/ef2JOx4umvWFWj4u/kkxwgZmZmtra2nj59qv7/QF0xph//+9cqPVx9/OzC1v8y08N2/TV4hsitW/Tb6n5t/dS1q3R0TqAiQFTHCCNAXH3vsvxrpwdVxQYBy9WZMbuldrluazuzavd/41HJZqHKdTdq18ArtPcCGXoy+mQAyhg0Vk2sSQkQS0vl5x70kg2M9zKWb8yv/nF+9U/z52/O28/QwOo+x91drtupRrytePorVtWo+Dv5JAcIZWVl5cWLF/fu3dP/6+FiTP/qN7+5s/nZ8n/+q6SH//5/Xq78t/9tpYft8xDGexl0y0h3o7it9fsvR71sddmjczIZAcIVI/QAce70iQdbjzuVAUI2kM30B6ShzozZLbXLdVthM+vAct2N2jXwCvW9QAadjDsZevH/u1RPk/JbGMsf9Z1+OHDoB0Xpy2Uz/TmQXe7M+bnT5+ZWP6+z40mPqpN++p4m47I4aVaU2qxiVad/NzbOuS32TkcbC4v7IDddXLPec8b+rw/0irth3Jw9QSY/QEyV7VH6mD710ccqJUh6uPXlf7zx3i/3HV/aO3f8wJnV+btbRYaQzfQfnG6x74Zxc/Y1LF7e/Epe3V4252DppXob9x3DemPUvHirA4QdI/TO3PjFxsPH3fcpJCsc+f1ffvzex3tPLO2dP3Hw7Or8nS0VIGQD2Ux/QJrozOLb0m7p9DdGsaq6WyqaVq3dvcL+Y7/xZsTAHUSdfrDfKyyq785rt6Ueio3eGzrdVd4/csf9c7lua+AVqir2gtLXSzkIGSAu3jXfvzh8eb+UsVA205+D1ceH1Rdrj0fe8bbP+/VGm50W7SUDV6k+K8bluvW6Te0V9iGhe6nebq92s2IElI6D3Wtz3A39do0rVNWKAKHo5/T0Md391OROSnjjvY8Pnv/p4d99ceSzJzO37x/5t6+KVbKZ/oPTLfbdqOiW3jVsyhL7vecBl+ofskb7dZIIEHqM0Dvz3oPfFwHijasfH1z+2ZH7j488+Krbmb/7sggQspn+gDTUmRXd4uqH6rUVTdvNjsWV97/7YL8ZYVynfVt2EtWr21RG++20XP+P3JdCSm+oKNfaip+r4rYqrrAoaZuKd2zbYlLOQNjvX5QGCNlMfw7WvujueLLXGWU/W3Z1n+CdtrP7teLpd63qLd99sWW/dHMdElyDvsYhQe1O1X18pvd/7H7XT/WB/DuZy//2t7/pY/rYgydFSth3vHP4/hfFt3314In+4NAtI3WLmo/2i6fqS+k/l/1DqZKncv69Lft43LqyA8RnW18UAWLvicUj//rYfgtDNpDN9Aekoc6s6IHFXhRwHaFLu2VneVXTFqXfdDdnuN+MKL0texerWKXfjYq9oN6PbJR+hRW31RniCqVtZKzJcPvkk0+GmYETu3yqrvEHCFX1dry+3rJeqVc8/a5VruW7Gwx7SBi8M+xsad6cugn91FnvFYMZINp+BsIKEI/N6FAWIFTRLbsLK7tFXYM9dqsvpceL7pFDuw9FJXAGwvUWhhUgPh8mQKgK3pllPWAc/h0ZsaxbKpZ3V/W/SdFtCcfdMC9Ydp12Suhf5YzaA/aCGj/y0D+XeVuOKywqjTMQPkIGiHpvYaiqseNVD8HuBu6n37XKtXx3g2EPCX0TfJgtdxeW3YRRrQgQ1Z+B6H8L4xcHl9clQxzZ/PPMrd/O/fphscp4C0MV3bK7sOwm7GvonanWDjyVl+pucKt4p7z85WmrA0T1hyj738L4xYHzVyRDHPndlzMbdw79+g+utzBUBe/MYXqgu7x3WHWdUurb0rW8/32ETv9Nd78e9QyEdYW7q6xsMeQZCPtKBv7I9t0wfy73bZVeoV58BiJkgKj3IUpVdXY869k1+tJuU9eWFddpblA2efW2UxsUba2/xbihvd+2vbHjbtjvphs1+QGidI/Sx3TxIUqpo3/4n5Ih9h1f3DN/4uD5K4e7J423VxkfolRFt+hV0S3mrNQ2q7hUp3vHumP34aMnpbO709oAYUcHRe9M/UOUx37/F8kQ+4539s6dOLgsnfmoCBDGhyhVBe/Mim7puxL7PSlHt9g3p1/D7m2pj0oU31pH677Lum/L6OHi1zj1bqw+6eIMEMP9yNU/V/VtlV6hXvpeYL9eykHIAFHv1zhV1djx7Mayz0vrH6Y1ur90lWvv6uwM9L5XCTs3pF/V1+5zxc97n6Y27nPp3bCv07jUJAeIinN6+pheXDqpv4tRXtavcaqiW/S7YV9n6XxUV25kiNJL6Wtd07N1AcIVHRS9M+v9Gqeq4J1Z0S3GKvvoXtotFU2rjpfbzfBsc6O//fS19s2V3lb3Uv3nV/T7r+8j+g1VHNRr/sjun6vitiqusCh7L2jj34HwETJAdMbxh6TyrEkOEMP8JUpVb69f6U1kKzdsV/g/JEUNX934Unb+WZU9OidTvT9lHf8PSVFtrNK9oHV/idJH4ADRGcefss6wJjlAVDDGdEdliNLzEI39KWtqmBrp5G0C7M7sRP9T1lTrKrG9oIbwAaKT9H+mNSGVTIDo9N7LSPU/02pjFedsK9JDJ7nRWdqZk/CfaVGTXIntBTU0EiCopiulAEG1sRIbnXQmVaMS2wtqIEC0sggQ1HgrsdFJZ1I1KrG9oAYCRCuLAEGNtxIbnXQmVaMS2wtqIEC0sggQ1HgrsdFJZ1I1KrG9oAYCRCuLAEGNtxIbnXQmVaMS2wtq8A0Q165dUwczxKQedvP5mHiyv5k/CdopsdFJZ6KGxPaCGrwCxOzsrPmItsf6+vo333wj/5orWkIefPP5mHjmz5CitvfV8Mxnt83Mnw2ai788bS7CDrOTMuMVIFpta2vru+++k3/NFYAH+gqJufL5krkI6Mk0QKysrDx9+lQGvfyb1f99gkbRV0gPAQIuOQaI/fv3v3jxYmFhQQa9/Ctf5/Z/sKIJRV/dvn2bvkIyCBBwyTFA3OuRL2TQ698CPoxGoq+QBgIEXLILEPZLw+KF4+5GwIj0vlLBlL5CGggQcMkrQExPT+tvTqtBP7Xz1nXp/0ANDGT01Xfffae+oK+QgGPr7fuFL8SRV4DY2NjQPx5fDPqp3ofnZW3xLTA8+gpAhvIKEDdv3pyZmSm+1Qe9LJe1xbfA8OgrJIwzEHDJK0AY9EEPhEJfISV8BgIuBAggMPoKKSFAwIUAAQRWfDgXSAABAi5ZBwgGPQBUI0DAJesAATSBYIqUECDgknWAYNCjCbw1hpTwWxhwyTpAMOjRBPoKQA4IEEBg9BVSwhkIuBAggMDoK6SEz0DAhQABBEZfISUECLgQIIDA+HAuUkKAgEvWAYJBDwDVCBBwyTpAAE0gmCIlBAi4ZB0gGPRoAm+NISX8FgZcsg4QDHo0gb4CkAMCBBAYfYWUcAYCLgQIIDD6CinhMxBwIUAAgdFXSAkBAi4ECCAwPpyLlBAg4JJ1gGDQA0A1AgRcsg4QQBMIpkgJAQIuWQcIBj2awFtjSAm/hQGXrAMEgx5NoK8A5IAAAQRGXyElnIGACwECCIy+Qkr4DARcCBBAYPQVUkKAgAsBAgiMD+ciJQQIuGQdIBj0AFCNAAGXrAME0ASCKVJCgIBL1gGCQY8m8NYYUsJvYcAl6wDBoEcT6CsAOSBAAIHRV0gJZyDgQoAAAqOvkBI+AwEXAgQQGH2FlBAg4EKAAALjw7lICQECLlkHCAY9AFQjQMAl6wABNIFgipQQIOCSdYBg0KMJvDWGlPBbGHDJOkAw6NEE+gpADggQQGD0FVLCGQi4ECCAwOgrpITPQMCFAAEERl8hJQQIuBAggMD4cC5SQoCAS9YBgkEPANUIEHDJOkAATSCYIiUECLhkHSAY9GgCb40hJfwWBlyyDhAMejSBvgKQAwIEEBh9hZRwBgIuBAggMPoKKeEzEHAhQACB0VdICQECLgQIIDA+nIuUECDgknWAYNADQDUCBFyyDhBAEwimSAkBAi5ZBwgGPZrAW2NICb+FAZesAwSDHk2grwDkgAABBEZfISWcgYALAQIIjL5CSvgMBFwIEEBg9BVSQoCACwECCIwP5yIlBAi4ZB0gGPQAUI0AAZesAwTQBIIpUkKAgEvWAYJBjybw1hhSwm9hwCXrAMGgRxPoKwA5IEAAgdFXSAlnIOBCgAACo6+QEj4DARcCBBAYfYWUECDgQoAAAuPDuUgJAQIuWQcIBj0AVCNAwCXrAAE0gWCKlBAg4JJ1gGDQowm8NYaU8FsYcMk6QDDo0QT6Cu01f+EnkhgqSjYwL4NcESCAwOgrtNfRtZkrny9VlGxgXga5IkAAgdFXaK89+6ZXH75j5wZVsko2MC+DXBEggMDoK7RaxUkITj9AR4AAAuPDuWg110kITj/AkHWAYNADgK30JASnH2DIOkAATSCYou3skxCcfoAt6wDBoEcTeGsMCTBOQnD6AbasAwSDHk2gr5AA/SQEpx9QigABBEZfIQ3FSQhOP6AUAQIIjL5CGtRJCE4/wIUAAQRGXyEZR9dmOP0AFwIE4jmTh83NTXNRisxnF8MxH8fJdna5W+1iPuJoTNYBgt/CiOzTTz9dWjxJJVDyVJrPLobDXtBo0ZkxZR0gEJns252FOSqBYkzXxl7QaNGZMWUdIDgDERmjM5liTNfGXtBo0ZkxZR0g+AxEZIzOZIoxXRt7QaNFZ8ZEgEA8jM5kijFdG3tBo0VnxkSAQDyMzmSKMV0be0GjRWfGRIBAPIzOZIoxXRt7QaNFZ8ZEgEA8jM5kijFdG3tBo0VnxpR1gOC3MCIrHZ1LS3PLH81dvDt36bN5KflCvpWF9patq8VbT77+xz+/un9RX7jx6Pvnj27ZG7erGNO15bYXRC46M6asAwQis0fn2fW5Sw/mVx6aJQtllT0d/EuO3/ZBvdM72D//9snGqUP2RSpWVVfYADHq3Vg8devht98/f7a53rvI4qmLd559P9I1VBRjurax7wWqE6QzVT28FaAfXDVq0w6sgVdIZ8aUdYDgDERkxuiU4WgPTb2CT8/eMfXlnftPisPq7ir3YKpYVaPiBYjLm19JgJCf93IvQPR/61mM6drGuxdsx0qtAzcejdBUo9aoTTuwBl4hnRlT1gGCz0BEpo/OpaXyV116yQbGWdzlG/Orf5xf/dP8+Zvz9uwYWN3p040O3RlqvPCqGEwVq2pU3ADx5M79l+oUyPr9lw9v9fITAWKsxrsXdNvPSs/N1ahNO7AGXiGdGRMBAvHoo3P5o74XXgcO/aAofblspk8HGZpnzs+dPje3+vnIo7PTm57qaKofxeXIWpzOLao46LpWdfrjiHE2WL15YSws7oPcdHHN+jQ0skXxbfXdMG6uuAYVIDbk30e3emet5Yb6AkTfpbSDinqU1Hs9xj0sijFd2xj3AnX6wX7/rii904Zvib5L7awarWmHuK2BV6iKzoyJAIF49NF58a555vbw5f1SxkLZTJ8Oq48Pqy/WHo82Ojvb03PnfL71OsZeMnCVmoDFmwIy4MzrLDvVoSajOsxvfy5h55DvChDb1+a4G/rt6le4HSBUdNiOEdoj0Fuyfc39p7Ur7mFRjOnaxrgXqLexXB966Pab0Ug7x/X+luhLIa62rF47dPuZicd1hUXRmTHlHiCE+iSE/Ku+LbA8+HJ9dNpnbktHp2ymT4e1L7qjU+amUfYcsWvnhMHO4bN/klYMJteq3nLtBX33OvveIHAFCFcsqBEg1KAvnbDFzysJ46tnL+VulN4f+7aGuV3GdG1j3Avstq9YpfdzRWeqGF16nWqt3Tx2VbTfMN2oF50ZU9YBApH5j05VNUZnx5h61gvrisHkWuVavrtB2QG7bCAOHtM7W5o3p27COK9rBIidUxF9AcL4KH7xms9xu+YnJxjTtY1xL7BTQv8qZ/wd0Jm9q1VdZLynUNq0vSsftv3M23JcYVF0ZkwECMTjf/JWVZ3R6T7Qbm/gHkyuVa7luxsMGyC2r6TG6Cy9id3t+z8up6Z271RE3wnqTuVLwNLbZUzXNta9wHzed1dZ2WLIMxD2lZSeD+vbzLobFe03TDfqRWfGRIBAPProrPfxMVV1Rqc1d4yJaQ9Q15YV12luUHZ01wei8Rav/mmGDe2d4O2NHXfD/uzF7vKyACE3Z5yAWVQf5iib4Pab0KoY07WNcS/oWM91p/t0a/l1p5FG+nTO7pXbb6iVNe3w7Wd/W3qFetGZMREgEI8+Ouv9ApuqGqPTHnn2uxj6x7yNQ2bpqooAoQ7/fWc7dm7I+DB532s+7TTJ895vahj3ufRu2NepLlURILpfa6edZbMN7baMO186rBnTtY1xL1BlnI3Tn1/9qa84iuvfGr1nZ83Spq1uP9dtVVxhUXRmTAQIxKOPzk70P6FDDVn2yLaLMV0be0GjRWfGRIBAPMbo7ET/I77UMEWAaBR7QaNFZ8ZEgEA89ujs8N8ITV4RIBrFXtBo0ZkxESAQT+nopNpYjOna2AsaLTozJgIE4mF0JlOM6drYCxotOjMmAgTiYXQmU4zp2tgLGi06MyYCBOJhdCZTjOna2AsaLTozJgIE4mF0JlOM6drYCxotOjMmAgTikX37DJLAmK6NvaBRdGZMBAjEY+7rKTq73K0cmM8uhmM+jhPv4i9Pm4smm/mIozEECCCko2szUuZSoLWufL5kLgJ6CBBAMHv2Ta8+fEdKvjDXAe1EgIALAQII5ujajExbKU5CIBkECLgQIIAw1OkHFSA4CYFkECDgQoAAwihOP3ASAikhQMCFAAEEoJ9+4CQEUkKAgAsBAgjAOP3ASQgkgwABFwIE4Ms+/cBJCCSDAAEXAgTgq/T0AychkAYCBFwIEIAX1+kHVZyEQNsRIOBCgAC8VJx+UMVJCLQaAQIuBAjAy/yFnxxbn9VLBq7+rWxgXgZoDwIEXAgQQGAMXKSEfoYLAQIIjIGLlNDPcCFAAIExcJES+hkuBAggMAYuUkI/w4UAAQTGwEVK6Ge4ECCAwBi4SAn9DBcCBBAYAxcpoZ/hQoAAAmPgIiX0M1wIEEBgDFykhH6GCwECCIyBi5TQz3AhQACBMXCREvoZLgQIIDAGLlJCP8OFAAEExsBFSuhnuBAggMAYuEgJ/QwXAgQQGAMXKaGf4UKAAAJj4CIl9DNcCBBAYAxcpIR+hgsBAgiMgYuU0M9wIUAAgTFwkRL6GS4ECCAwBi5SQj/DhQABBMbARUroZ7gQIIDAGLhICf0MFwIEEBgDFymhn+FCgAACY+AiJfQzXAgQQGAMXKSEfoYLAQIIjIGLlNDPcCFAAIExcJES+hkuBAggMAYuUkI/w4UAAQTGwEVK6Ge4ECCAwBi4SAn9DBcCBBAYAxcpoZ/hQoAAAmPgIiX0M1wIEEBgDFykhH6GCwECCIyBi5TQz3AhQACBMXCREvoZLgQIIDAGLlJCP8OFAAEExsBFSuhnuBAggMAYuEgJ/QwXAgQQGAMXKaGf4UKAAAJj4CIl9DNcCBBAYAxcpIR+hgsBAgiMgYuU0M9wIUAAgTFwkRL6GS4ECCAwBi5SQj/DhQABBMbARUroZ7gQIIDAGLhICf0MFwIEEBgDFymhn+FCgAACY+AiJfQzXAgQQGAMXKSEfoYLAQIIjIGLlNDPcCFAAIExcJES+hkuBAggMAYuUkI/w4UAAQTGwEVK6Ge4ECCAwBi4SAn9DBcCBBAYAxcpoZ/hQoAAAmPgIiX0M1wIEEBgDFykhH6GCwECCIyBi5TQz3AhQACBMXCREvoZLgQIIDAGLlJCP8OFAAEExsBFSuhnuBAggMAYuEgJ/QwXAgQQGAMXKaGf4UKAAAJj4CIl9DNcCBBAYAxcpIR+hgsBAgiMgYuU0M9wIUAAgTFw0V7zF35ybH1WL+ln/VvZwLwMckWAAAIjQKC9jq7NSANXlGxgXga5IkAAgREg0F579k2vPnzHzg2qZJVsYF4GuSJAAIERINBqFSchOP0AHQECCIwAgVZznYTg9AMMBAggMAIE2q70JASnH2AgQACBESDQdvZJCE4/wEaAAAIjQCABxkkITj/ARoAAAiNAIAH6SQhOP6AUAQIIjACBNBQnITj9gFIECCAwAgTSoE5CcPoBLgQIIDACBJJxdG2G0w9wIUCgTWZnZ89MvIu/PG0umjDyMJqPLIIyH/HWOrvcrWSYzxP8ECDQJjICrqyvLi2epGrXtWvXmKRN+/TTT+1HnhpvyZNiPk/wQ4BAm8iRTwZBZ2GOql28FItAjlX2I0+NtwgQwREg0CYECP8iQERAgJjAIkAER4BAmxAg/IsAEQEBYgKLABEcAQJtQoDwLwJEBASICSwCRHAECLQJAcK/CBARECAmsAgQwREg0CYECP8iQERAgJjAIkAER4BAmxAg/IsAEQEBYgKLABEcAQJt4goQS0tzyx/NXbw7d+mzeSn5Qr6VhfaWzdXGo++fP7plL49ci7eefP2Pf6p6eOuQvQEBwsf0nlfO/OrYj44cMFf0Kw0Qk9Clk18V+9HA3q4uAkRwBAhMops3b25sbExPm3+BvzRAnF2fu/RgfuWhWbJQVtlzxLMWT1288+x7e5BVDL74tXjq1sNvvy8dsgQIHxIg1P8vVR0j7AAxIV06+TVwP6ro7eoiQARHgMAkmpmZ2draevr06cLCgr7cDhAyfO2hrFfY6ayGlz7gNh492TjVnWUDB1/MqhiyBAgfRYCojhFGgJicLp38GrgfVfR2dREggiNAYHKtrKy8ePHi3r17+/fvV0uMALG0VP6qTi/ZwDhLvHxjfvWP86t/mj9/c96eMtXVnW7PNtfLZvHAwRezKoYsAcKHESBcMUIPEBPVpZNfA/ejit6uLgJEcAQITDSJDhIgJEZImJiyAsTyR30v7A4c+kFR+nLZTJ8jMpTPnJ87fW5u9fPRRrOaXF/dv2iv6uwMvvX7L9VJY2OC62/f6qvkUnKF8u/2qm93XylWrDKv0Bq4FUOWAOGjNEDYMUIPEBPVpVJFi+qtuHh586tvn9zpreou7HVX0XIjtKLW27K89233/qi1ekO6LmXuR/231b2go7er94gOAaIBBAi0wMLCwtOnT7e2ttbX1/UAcfGueWb48OX9UsZC2UyfI6uPD6sv1h6POJq7Q7ZkcqlS41VNLmOIdy+4M9GM08sVl6pYJeO1GKzq3W5jYrqGbIcA4aciQOgxQg8Qk9alZuf0Dt7qUt2viy+0Fupvxb5+q+htdUR//u3LO5e7V9LXtO5LVdyWvr3xAw7cIzoEiAYQIDLyneb27duyRP7VF07+8r///e96gLDPDJeOZtlMnyNrX3RHs8xlo4xxY9fg0azNrIozsfqqiku5Vqn5qL/E7L7UM14Ulg1ZVWd6/+G4feSjgpQdICanS+1VvSXdA3z/F91t9BYyWtHut6L0LXubbacH/baqLzXwtuzeHmaP6BAgGkCAyIgcgM1FLeE6A1FvNKsKO5o71uDrm6T9H4nXT7FWXMq1Sg1Q/dp6r/MGDNmiOAPho+IMhOstjMnpUvsQXvTJ6AFi+3oqerv0KL5zu85LVdzWzmXN3h5mj+gQIBpAgMiIejXfLtWfgah3clhVndGsnfK117qP9+alhkkJFavsAWpXxTYECB+lAaL6Q5ST06V2tvA8A2HfVl9udgSI6ku5bku7uNnb9pLSIkAER4DA5Br4Wxj1Pp6mqsZo7vTGmf5qqdOdd9vTzX2873/PuP8aXJeqXqW/41taFSOVAOGjxq9xTlyXln1WYPgAoZar9wuqe9s+9u9cQ9WlXLelXbyktwfuER0CRAMIEBlp0RmIIf8ORL1fkFNVbzR3duZXcaa0GGQVx3s1lLfPrD7b3JBhVzYujW8rVnX6P0tvzF99uXEg6RAg/NT4Q1IT1aWd/g7pb9GqAKF3lHUOo7y3XQGi+lJGY7vu+fZlh9gjiiJABEeAyEiLPgMx/F+ijPwnehIoAoSPen/Kuu1daoTXlhYBIjgCREZaFCBc7ADRif5HgtteBIgIjADRaXmXEiBQigCRkVQDRIf/pmiUIkBEYAeITpu7lACBUgSIjCQcIKjhiwARQWmAoMZbBIjgCBAZIUBQHQJEFASICSwCRHAEiIy06LcwXAgQ/kWAiIAAMYFFgAiOAIE2IUD4FwEiAgLEBBYBIjgCREY4A0F1CBBRECAmsAgQwREgMpLGZyCuXbumDoGoRz2A5iOLoORYZT7uGDcCRHAEiIwkECBmZ2fNqTB5Njc3zUUTRh5G85FFUOYjjslgPk/wQ4DISAIBohV4nAHkgACREQ5scfA4A8gBASIjHNji4HEGkAMCREYS+C2MViBAAMgBAQIIjAABIAcEiIxwBiIOHmcAOSBAZIRXxgCAUAgQGSFAxMEZCAA5IEBkhAARB48zgBwQIDLCgS0OHmcAOSBAZIQDWxw8zgByQIDICO/Nx0GAAJADAgQQGAECQA4IEBnhDEQcPM4AckCAyAivjAEAoRAgMkKAiIMzEAByQIDICAEiDh5nADkgQGSEA1scPM4AckCAyAgHtjh4nAHkgACREd6bj4MAASAHBAggMAIEgBwQIDLCGYg4eJwB5IAAkRFeGQMAQiFAZIQAEQdnIADkgACREQJEHDzOAHJAgMgIB7Y4eJwB5IAAkREObHHwOAPIAQEiI7w3HwcBAkAOCBBAYAQIADkgQGSEMxBx8DgDyAEBIiO8MgYAhEKAyAgBIg7OQADIAQEiIwSIOHicAeSAAJERDmxx8DgDyAEBIiMc2OLgcQaQAwJERnhvPg4CBIAcECCAwAgQAHJAgMgIZyDi4HEGkAMCREZ4ZQwACIUAkRECRBycgQCQAwJERggQcfA4A8gBASIjHNji4HEGkAMCREY4sMXB4wwgBwSIjPDefBwECAA5IEAAgREgAOSAAJERzkDEweMMIAcEiIzwyhgAEAoBIiMEiDg4AwEgBwSIjBAg4uBxBpADAkRGOLDFweMMIAcEiIxwYIuDxxlADggQGeG9+TgIEAByQIAAAiNAAMgBASIjnIGIg8cZQA4IEBnhlTEAIBQCREYIEHFwBgJADggQGSFAxMHjDCAHBIiMcGCLg8cZQA4IEBnhwBYHjzOAHBAgMsJ783EQIADkgAABBEaAAJADAkRGOAMRB48zgBwQIDLCK2MAQCgEiIwQIOLgDASAHAwIEPv27fv5jg8//PDq1avHjx83N4rixz/+8fr6ur7kjTfe+NnPfqYvGdUrr7xS/HTK2traj370I3W1cotXrlwxL9NmBIg4eJwB5GCoALF3796p3uFWDq4ffPDBzMyMuV3zmgsQ+/fvN1f0JBkghHp9LP+qbwssD7h8CgBSN0KAUC5duqROQrz11ls//elPr1+//u6777766quyRL6Vg65adePGDTk8y9dLS0tqe4kdcjyW/HH+/Hl1hZIA1nquXbs2PT1tbyAOHz4sa99///133nmnNECcOXNGLrKysqJywLlz5xYWFtQGcjfk3hbb26tKA0TpGQj7vsllz549K0uuXr168uRJ/RoAAEjeCAFCjvFyTJXEIEfuAwcOqFMRsur06dNy/JYNOp2OOpTKwV4ChByJ5Ws57h48ePCHP/yhXPDQoUN79uyRzeRYPtVLAHLlciVyK6UbvPbaa3IrspmslZxhBwi5uNyiuojKCm+++WZx1JcD/JEjR4rt7VVDBojS+zY3Nye3KD++XFwijtxV/UoAAEjbUAGiUHwG4sSJE+o4OtULFhIX5Cg7Ozt74cIFWSJ5Ynl5+ejRo3JxuYgsOXbs2Lvvvlts/+GHH8q/kgDef/99tbB0g1OnThW38tZbb9kB4r333lNfy8Zy9+QAL5lAFkpkkYVyXJc7UGxvr7I/AyFr7QBRet/kh5UrkZ9RnX0BACArQwUI/S0MRV6Iv/3228W3ciiV464cVuUILUdlOe7K63t5lS9H/dOnT0/1zkkYh+oDBw5IAihOCZRuoN/K66+/bgeItbW14lvJInKRqd5VLSwsyFr9/QvFWDXkGYjS+ybLT548KfFIvpV4YT9EAAAkrGaAkGOncQZCHYZXVlYOHz4s0UG+lcPw0tKSZAhZfvz48WL7gh4gSjfQb2VmZsYOEOr0htizZ8/Pe2cg5OuDBw9evnxZjvpHjx7Vt7dXDRkgSu9b4bXXXpPrHNcvpwAAMBY1A4Qcia9fv/7mm2/KMfv06dNyBFXLT506de3aNfXJAzkMf/DBB+qgLgdp2V59ZkLWqhMVeoAo3aC4lVdffVWiiR0g5L7JkVt9DuP8+fPFqrW1tffff19//6J01ZABovS+nThx4sKFC7JErkquU/+wBQAAyasZIKZ2fgvjxo0bly5dKo7Br7/++s97nySQr+Wgvrq6Wmw/Ozsrx2PZXtKGbDbVfwaidIOp3mcV5YDt+i0M2VKO4uo3QfS4IBvb718o+qohA8RU2X2bnp4+d+6cJCS59TNnzrzS+5UTAAAyMSBAtI4c1yVJSLKR5DH8KgAAMJLUAsSbb755/fp19cnN4VcBAICRpBYgAABABAQIAAAwMgIEAAAYGQECAACMjAABAABGRoAAAAAjI0AAAICRESAAAMDICBAAAGBkBAgAADCy/w+qGFLQZeq0ogAAAABJRU5ErkJggg==;" vertex="1" parent="1">
          <mxGeometry x="20" y="950" width="704" height="440" as="geometry" />
        </mxCell>
        <mxCell id="PmJEQbOTKtJchVZN6b2D-3" value="" style="shape=image;verticalLabelPosition=bottom;labelBackgroundColor=default;verticalAlign=top;aspect=fixed;imageAspect=0;image=data:image/png,iVBORw0KGgoAAAANSUhEUgAAA8AAAAF3CAIAAADl5LUoAAAt4UlEQVR4Xu3d7XMc1Z0v8P17MAazxpCwiCDZYNlOLBmwwU+IhOcEC0iyXKcqDiQktrOuSlYLpnjYXK63LlWw5bC8WbI31K1735A/6b6+Z9TWqNXdpzUzZ2Y0c/rzqV+pZvpxZrrPnK/OtEZ/tw8AABjY31UnAAAAcQI0AAAMQYAGAIAhCNAAADAEARoAAIYgQAMAwBAEaAAAGIIADQAAQxCgAQBgCAI0AAAMQYAGAIAhCNAAADAEARoAAIYgQAMAwBAEaAAAGIIADQAAQxCgAQBgCAI0AAAMQYAGAIAhCNAAGfpmp5/97GdhYvhpuulzOn3fXmh5PKbnMX3fqARogAwVPQTkISXopNCO8pZyXgnQAMBMSwk6EJNyXgnQABkyckZOUoJOCu0obynnlQANkKGUjgFmzV6dz3u1X6Yj5fgK0AAZSukYYNbs1UiwdpS3lPNKgAbIkI4f0mlHxAjQABnS8ZOTlJHCFNpR3lLOKwEaIEM6fnKyV+fzXu2X6Ug5vgI0QIZSRlZg1qQEnRTaUd5SzisBGgCYaSlBB2JSzisBGiBDRs7ISUrQSaEd5S3lvBKgATKU0jHArNmr83mv9st0pBxfARogQykdA8yavRoJ1o7ylnJeCdAAGdLxQzrtiBgBGiBDOn5ykjJSmEI7ylvKeSVAA2RIx09O9up83qv9Mh0px1eABshQysgKzJqUoJNCO8pbynklQAMAMy0l6EBMynklQANkyMgZOUkJOim0o7ylnFcCNECGUjoGmDV7dT7v1X6ZjpTjK0ADZCilY4BZs1cjwdpR3lLOKwEaIEM6fkinHREjQANkSMdPTlJGClNoR3lLOa8EaIAM6fjJyV6dz3u1X6Yj5fgK0AAZShlZgVmTEnRSaEd5SzmvBGgAYKalBB2ISTmvBGiADBk5IycpQSeFdpS3lPNKgAbIUErHALNmr87nvdov05FyfAVogAyldAwwa/ZqJFg7ylvKeSVAA2RIxw/ptCNiBGiADOn4yUnKSGEK7ShvKeeVAA2QIR0/Odmr83mv9st0pBxfARogQykjKzBrUoJOCu0obynnlQANAMy0lKADMSnnlQANkCEjZ+QkJeik0I7ylnJeCdAAGUrpGGDW7NX5vFf7ZTpSjq8ADZChlI4BZs1ejQRrR3lLOa8EaIAM6fghnXZEjAANkCEdPzlJGSlMoR3lLeW8EqABMqTjJyd7dT7v1X6ZjpTjK0ADZChlZAVmTUrQSaEd5S3lvBKgAYCZlhJ0ICblvBKgATJk5IycpASdFNpR3lLOKwEaIEMpHQPMmr06n/dqv0xHyvEVoAEylNIxwKzZq5Fg7ShvKeeVAA2QIR0/pNOOiBGgATKk4ycnKSOFKbSjvKWcVwI0QIZ0/ORkr87nvdov05FyfAVogAyljKzArEkJOim0o7ylnFcCNAAw01KCDsSknFcCNECGjJyRk5Sgk0I7ylvKeSVAA2QopWOAWbNX5/Ne7ZfpSDm+AjRAhlI6Bpg1ezUSrB3lLeW8EqABMqTjh3TaETECNECGdPzkJGWkMIV2lLeU80qABsiQjp+c7NX5vFf7ZTpSjq8ADZChlJEV2HOXLl1aWFjo3y0HnTA9zO3fnSjtKG8CNACQj/X19Y2Njf7dctAJ08Pc/l0YmQANwA5Gzphr+/fvv3Xr1vnz54u7/aATpoTpYe72opOkHeVNgAZgh5SOAWbBiRMnbt++ffDgwX1b53O4HaaE6ZUlJ0c7ylvK8RWgATKU0jHAjHhn076tkeD+3anRjvKW8gmDAA2QIR0/GSgPOZcHpKdGOyJGgAbIkI6fPBQXPb/11lvlS6KnRjvKmxFoAHbQ8ZONjY2NcD6Xv5RjarSjvKUcXwF6II888sgTdEA40NVjz/zrZvu9evVqdVLutN/RVF/H2bO2tvbll1+Gn9UZk9fBdjS46pk0hwToiQsnynNrF1ZPHlMZ14svvpjHOwIV2m8XSvsd2eXLl+uvp1LtFU6b6pk0hwToiQvvy+F0WTmxqDKubH6lpkL77UJpvyMLSaj+eirVXgK0AD0QHXAXSgecK+23C6X9jkyAViOUAC1AD0QH3IXSAedK++1Cab8jE6DVCJVHgPYtHBOnA+5C6YBzpf12obTfkQnQaoTKI0CnEKAHogPuQumAc6X9dqG035EJ0GqEyiNAG4GeOB1wF0oHnCvttwul/Y5MgFYjVB4B2jXQE6cD7kLpgHOl/XahtN+RCdBqhBKgBeiBxDrg1dXF068tnn178dz1pVDhRrgbJtaXnFytv//t5++/Xp8+5Tr5+idf/OVvRd14/dH6ApOo8Nz7O/3o3bP96cWDKU8ZpHTAuYq135Orx46/9uby2394/Pq/hgo3wt0wsb7k5Kqz7Xe0RtpS2m/d3fcc+P7b//eBoxeqM3ZqDtCry8d+8sbyr0Lr+DhUuBHuhonVxSZZM9I6VGMJ0AL0DpcuXVpfX9+/f39lemMH/OTa4rlrS+dvVCtMDLPqZ1tinTx+9spn23mx38nN1FvMyeOv3/j623oHHHvwKbX27leff/3J+vGGTY3WN+uA591Q7ff7a889fu2Tx2/8j2pd+yTMqp8eiRVrAvPRfkvxevBHG9aKtdBi7giNtKW037oQoJ/50/8L1R6jGwP00WsfP37j00qFifUlx1LFaEjlfBi5dbSfe+Otln3FWv0kquVhjFa7brAxQIe33/AmHN6KqzNmlQA9NgsLCxsbG7du3Tpx4kR5er0DDhG5Hp3LNd4MXXRs5beS9ffvnNkjv8VMoho74JYHn1Jjf+I64Hk3ePvtpedeIKil5zv16XgzdEsTGPtpnFKN7bf8m2r9ibTUrh3weEv7resH6PYYXQnQz7/wbPhZT89F9RcYY22eV19defeTzz+7ulY6YUZuHdM892L7qjeWsXR8sYo9jJFr1w3WA3R44w1vv+FNOLwVV2bNLAF6zM6fP3/79u133nnn4MGDxZRKB7y62jz2XK6wQOVajtOvLl3449KFf146c2mpfi62V+99ZOc7y45ZI73FTKIaO+CWBz9yFb/Zj/eJ64DzsGv7Pbl6rHnsuVzXPqlcy9HN9nvy2asfNUz56sqzDc+lUrt2wOMt7beuEqBjMbocoJ86tXxt4+ZKa4AOC4TFyi9+SutYKU6VXgOpnn4jt45pnnuxfbW0+klU7GGMXLtusBygw5tteMsNb7zh7bd0Zs0B38IxfpWzodIBn35tx/Dz/Y/e1a/y9LBY+WwLby5PnFk89dTihfeGe4sperXYZ53FW8zau1/d+YB1Z4stPietzwprhQ0Wn5r1ZpXaScus6gZrb20NHXDrg1/ZHN8a6hGWH8D2ik1z65+XlfdVX0YHnI329nv8tTf7QfnIP/33777w0wNHV+9dPHr/ExeW3t7ozwqLlU+ejrbfWidafjqxfdUb2helT+cHb6QDPuWitN+6xgBdj9HlAL3+xvqNm73rNEJWPvL7Pz30wpv3Lq/eu7R86MkLS1c2igAdFgiLlV/8kVtHUcXBLW7sHLLd2Tp2HvQdp8rA514/qRezKmf79gYrLXHnxRjFBlv21d7qK+sOfp6P8JRX4s8rtq9dN1hUP0DXxyw6QoBu0/88Ym1trdwBn327ev3G4WcPhqpMDIuVz7YLNw8XNy7eHO4tpj4IVK7i7C/edCqNtrfi1ptR5eOklrVaZu38MLdhDLihA97twVc3uNW8Wx7G9sK1BLA1t/owVioPfvMNpbKADjgzsfbb+6vBrZT83RfePHTmh4d/+8GR658s/OzdI7/7qD8rLFY+PbrZfnurNCWJftwp7au6wXr4Lld9X8UGq49wsDeEFe23SUuALsfocoB+59rv+wH6u8+/eej0j468e/PItY96reO3H/YDdFis/OKP3DpW7hzNO59pVM6ZlhNsl7MrMrd45/98a3c7WkS8uVXu1rdZ39eurX6E87xxR/2KzW15Xi37atlgv8JpE7tqbo7s2Qj0NyXFgwg/yxMzmP7WW299+umn//Zv/1bugOvXbzQG6LBY+Wy7+EHvLSa8v1Sqfl5WavemWGrYlbuxJVvWis0qd5xF1RtYvVNsefD1WeVPh2MP486Std66XPWHUdlC/bmsbHbAV69erZwAsRPD9Dma/h//8R/l9lu+fuPA0ZXD737Qv7ujrn1SPj262X53DdA7WuXODda3X676vuov1OBvCCub7ff0f/uf9YyoWqoeoK9vfNAP0Pcunzzym5v1SzjCAmGx8os/cutYKc6TrXOscg60nGCNgyCNS9amb1+AVD7BKlXedb0VlKtxX/WTuWXWgOf5aE+5UoO8VxS16wbDafPv//7v32zGpPq77jeRd+MZnL5vVKkBujopL7ERrNECdFEjvMXU21u5WtpA5VOn/u+a7WvFZhUdXnlrm7/K79IBtzz4+ptXefXYw9hacugAbQS6a2Lttxagb1ajc1OALqpr7bfcaurLVFtlJZ20dsD1faW8Iaxov01aRqBjl3DUAvR7gwTookZoHStN53zsZK6eYJstqziTK6MhsXMvNr03a+DmVl2xaZstrT7lPB/lKQ/8vKr7imywX3mMQKdICtBFnM9S+zWUo13CUdQIbzGVj3gqFWsD9bUG6WVbZtU7vHrVl6k/jO1ZtbeYAX8R395s5E2t/jBWatd11Z+IDjgb7e135yUcbxw6vRYy9JGrHy+8/qvFX9zoz6pcwlFU59pvvZGWQky1Ve7scds74IH2NfAbwor226QxQLf/EeHOSzjeuP/McyFDH/nthwvrVx79xT/FLuEoaqTW0fZ7XfsJtj1988xp/3Rll+m7NrdI+41ts77B7Vlp53l5I7s+5frDqD6v+L4aN1gu10AnBehc1c+GSgc82h8RFjXCW8zK5qlc/sVxpXeuN7/FlPrLHRGzsoXYWu2z6sNRlap3ir2J7Q9+a4PtYw/Vtj1kgC6Wb08POuA87Np+y39E+FjvjwjfOHD05D1Ly4fOPHe494H1nVmVPyIsqoPtd2cj7S1Qvt56+xHunNWbUgsK5RpgX0O8Iaxov01G+Bq78h8RPv77P4UMfeDoyr2Ly4dOh9bxfj9AV/6IsKgRWkc9pZVPm/YTbHuVzVNlkHOvvrvyFmLNrZ5Wd6wb31dbqx/1PL+z8cGecvvzat9X4wbLlce3cKRICtD5jUDHPo+odMCjfY1dUSO8xRRV+U29f1q3tIGiAdz5nf6zq+uh+xyg5bTMWqmN45bXKk+vvHHEHnxlxZb9Vtt2JEC3PIzivaNxVlE64Hk3YPsd7Wvsiupm+y3PjTXeyqz67sqxe8B9tTyRyt0V7bfJCP9IZbSvsStqhNZRP47l9/aWjw0rs+rptvHciwXo3qx4c6vMre+ucV+9tSKtfmWk83zEpxx/Xi37atlgv/L4HugUSQE6v2ugB/9PZlP+RyoqserDXfVfr3XA827w9jvlf6SSa9V73D0s7bdutH/lPf1/pKLmseoBet8c/ifCFAL0QOod8MrU/5W3Sql6XN78OHvHX3LogHPV2H6n/K+8sywBOg+VAF3UlP+Vt5q7agzQnSJAD6SxA17ZvJbj9Gu9vyk8d30pVLgR7jZeuaH2vCqXcNQ/yNMB5yrWfk+uHjv+2pu9vym8/q+hwo1wt/HKDdVYAnQeGgP0yurysZ+8sfyr0Do+DhVuhLthYnUx1dUSoAXogcQ6YJVTda0Drn8dZuxrMud9+tWrV7Xf7Ktr7XeMmgO0Uq0lQAvQAxGgu1A64Fxpv10o7XdkArQaoQTopABdjPd0gQ64C9W1Dlj7VTlV19rvGAnQaoQSoJMCdHfogLtQXeuAfYKkcqqutd8xEqDVCCVAJwVoI1gqp+paByxAq5yqa+13jARoNUIJ0EkBulMd8Isvvli8QZOr4hBXj32+tF9y0rX2O0YhCVVfTdiNAC1AD+SRRx6pnjsdcPXq1eqk3IUDXT32+dJ+M3Z2U3Vq7jrVfseo+jpScvanp6qT2FI9kzpGgCbK8c2b45uxP2yqTgWG9Nx7q9VJsEmAJsrxzVt3/oaha1544YXiC7DDjeo8YBgCNDECNFGOL8ydxcXF//zP/ywCdLgR7laXAAYmQBOTFKCNYOVNgM6b9pufe+6559NPPy3ScyHcDROrywGDEaCJSQrQ5E2Azpvjm5/Lly+X03PBH8vDyARoYpICtBGsvDm+eftGgM7L6urqX//612p8/uabMDHMqi4NDODxNV/tQrOkAP2NDhjmlvabmVu3blWz85Ywq7o0AAkEaKKMQOdN+83MM888Uw3OW8Ks6tLAAIxAEyNAE+X45s3xzc9vfvObSnQOwsTqcsBgXANNjABNlOObN58w5Oe+++777LPPyuk53A0Tq8sBgxGgiRGgiXJ8Ye4sLy//13/9V5Gew41wt7oEMDABmpikAG0EK28CdN6031xdunSpCNDhRnUeMAwBmpikAE3eBOi8Ob65uvvuu2/evBmOb7hRnQcMQ4AmJilAG8HKm+ObNwE6Yw899JDjC+l8CwcxSQHaGzTML+03b44vwOQI0EQZgc6b9puHNy6/8/Kln1enOr4wDkagiRGgiXJ88+b4zrt7Dxx48xe//uIvfxOgYUJcA02MAE2U45s3nzDMu1/+7o9vX/+X8FOAhgkRoIkRoIlyfGGWPfidh8LPn//ydwI0TIgATUxSgDaClTcdcN603zwI0DA5AjQxSQGavOmA8+b45kGAhskRoIlJCtBGsPLm+OZNwMqDAA2T41s4iEkK0N6gYX5pv3kQoAGmT4Amygh03rTfPAjQMDlGoIkRoIlyfPPm+ObN8YV0roEmRoAmyvHNm08Y8qb9QjoBmhgBmijHF+aX9gvpBGhikgK0Eay86YDzpv3mTfuFdAI0MUkBmrzpgPPm+ObN8YV0AjQxSQHaCFbeHN+8CVh5c3whnW/hICYpQHuDhvml/ebN8QWYHAGaKCPQedN+8+b4Qjoj0MQI0EQ5vnlzfPPm+EI610ATI0AT5fjmzScMedN+IZ0ATYwATZTjC/NL+4V0AjQxSQHaCFbedMB5037zpv1COgGamKQATd50wHlzfPPm+EI6AZqYpABtBCtvjm/eBKy8Ob6QzrdwEJMUoL1Bw/zSfvPm+AJMjgBNlBHovGm/eXN8IZ0RaGIEaKIc37w5vnlzfCGda6CJEaCJcnzz5hOGvGm/kE6AJkaAJsrxhfml/UI6AZqYpABtBCtvOuC8ab95034hnQBNTFKAJm864Lw5vnlzfCGdAE1MUoA2gpU3xzdvjQHrrseu3Pz6g6fvuqs6g3nTeHyBofgWDmKSArQ3aJhfje1XgM5G4/EFYCwEaKKMQM+Xu+56/tdff/vFX/72+dd/Xn/srl4UvvXBr299+/lmIC7NvZOPQ/vdjMu9iaF+faG6TH0V5oj3Z0hnBJoYAZoox3eO3HXXsfVb34YQ3Lt94YPPb11ZPPLLEI6LKcHTN769+Y/Hwo2lf/zz5zeeDzf++tf//evNqN1bZWvguTwCXV+FOaL9QjrXQBMjQBPl+M6ykG5DqO1l5VrwLZSnbI4lb2Xl3u3e9PInDP2J20m6aZViTDqE8mLv/dWZQdovpBOgiRGgiXJ8Z1YvN4f0vJVre1N6F2xcWWoL0Hcu1ehf41EsFqLw1sR6gG5Ypb/TsGJ/eJsZpP1COgGamKQA7RrZvOmAZ9NWxt2+ZqM0sSVA75gb/PSnfyyGk8sL7wzQ1VUKxSUiS6UhamaQ9gvpBGhikgI0edMBz6yGEejyNdCbIfhM7xro7QTcv6B5K/7e9df/9X+2E3Zvla0/PdyaWF9lc0dGoOeD9gvpBGhikgK0Eei8Ob6zrHIN9L7SdRrb38JRCtCVufs2A9bSP/75zhUam9/XsflFHL0gXvsWjvL1G66Bng8CNKTzLRzEJAVob9Awv7TfvDm+AJMjQBNlBDpv2m/eHF9IZwSaGAGaKMc3b45v3hxfSOcaaGIEaKIc37z5hCFv2i+kE6CJEaCJcnxhfmm/kE6AJiYpQBvBypsOOG/ab960X0gnQBOTFKDJmw44b45v3hxfSCdAE5MUoI1g5c3xzZuAlTfHF9L5Fg5ikgK0N2iYX9pv3hxfgMkRoIkyAp037Tdvji+kMwJNjABNlOObN8c3b44vpHMNNDGpATooxinDz+Jun+kZTN9HvoojTq60X0gnQBOTFKABmE0CNKQToIkRoKGjjEDn4Y3L77x86efVqQI0jIMATYwADR0lYM27ew8cePMXv/7iL38ToGFCBGhiBGjoKAFr3v3yd398+/q/hJ8CNEyIb+EgRoCGjhKw5t2D33ko/Pz5L38nQANMmQANHSVg5UGAhskxAk2MAA0dJWDlQYCGyXENNDECNHSUb+HIgwANkyNAEyNAA8wxARomR4AmRoCGjjICnQcBGiZHgCZGgIaOErDy5vhCOgGaGAEaOkrAypvjC+l8CwcxAjR0lICVN8cXhrX09D+ExNxSYYHqOnSVAA0dJWDlzfGFYT12ceG591ZbKixQXYeuEqChowSsvDm+MKx7Duy/cOMH9dxcVJgVFqiuQ1cJ0NBRvoUjbwI0jKBlENrwM2UCNEAOLl26tLCw3cGXA3SYHub27wIxsUFow89UCNDQUUagM7O+vr6xsdG/Ww7QYXqY278LtGgchDb8TIUADR3lI/7M7N+//9atW+fPny/u9o9vmBKmh7nbiwJx9UFow8/UCdDQUQJ0fk6cOHH79u2DBw/u2zq+4XaYEqZXlgRaVAahDT9TJ0BDRwnQWXpn076t49u/CwyuPAht+JlGAjR0lACdpf6Qczi+5QFpYCj9QWjDzzQSoKGjBOhcFRc9h+NbviQaGEoxCG34mRgBGjrKt3BkbGNjIwTo8pdyAMN67OKC4WdiBGigW57ogLW1tS+//DL8rM7ITvXoMtuqx2+2PXm6V/Ol+oozMQI0dFRnR6AvX768evKYyqDCoaweXWab1jfR0iKmSYCGjursNdChj1k5sagyKHFh7mh9Ey0tYpoEaOgoAVrNe4kLc0frm2hpEdMkQENHCdBq3ktcmDta30RLi5gmARo6SoBW817iwtzR+iZaWsQ0CdDQUQK0mvcSF+aO1jfR0iKmSYCGjuryt3DUOx41jyUuzB2tb6KlRUyTAA10iy48mxIX5o7WN9HSIqZJgIaOMgK9o1aXj/3kjeVf/eHx6x+HCjfC3TCxupiaVp18/ZMv/vK3om68/mh9gRVxYQ41tr7V1cXTry2efXvx3PWlUOFGuBsm1pdU7aVFTJMADR2V9zXQly5dWl9f379/f3VGpAs/eu3jx298Wqkwsb5kep08fvbKZ9/umg7HUiGGfv71J+vHx7aL2AbX399+RqE+f//1+roj1Mnjr9/4+tvYSyQuzKahWt+Ta4vnri2dv1GtMDHMqh/0xMqy9fVLi5gmARo6Ku8AvbCwsLGxcevWrRMnTlRmVbrw5194Nvysp+ei+guMq4pEWM6X6++39YiJtWuPO2zFNhgCdP9J3XmOn11dqy02bAnQ82jw1hcicj06l2u8GTrX1tcvLWKaBGjoqLwDdOH8+fO3b99+5513Dh482J9Y7sKfOrV8bePmSmuADguExcq91OlXly78cenCPy+dubRU78Paqxc0x5EsB6xde9xhK7bBcoDeWuyrK89WFxu2BOj5tWvrW11tHnsuV1igci2H1teyQS1imgRo6KguBOggdN6hCw8deejOiynlLnz9jfUbN3vXaYSsfOT3f3rohTfvXV69d2n50JMXlq5sFAE6LBAWK/dSofN+4sziqacWL7w3XBdexMGP3j1bn1XU2rtfbV8FUerpQ8cf1upfJlHpRHestTWrPLFf5V2XLzIeZF/tG2wK0NsPMva82mf1tiNAz7P21nf6tR3Dz/c/ele/ytPDYuWDrvU1brAoLWKaBGjoqI4E6MKJEydu3bq1sbGxsLBQ7sLfufb7foD+7vNvHjr9oyPv3jxy7aOFn7175Lcf9gN0WKzcS124ebi4cfHmkF34s1c/isfBXgbd6i+LKzX7PWvRoRYJtZID2gelYnN7j6RyxcXW3ZZ9tWyw4RKO0gZbnldsVnlTsVdMXJgLsdZ39u3q9RuHnz0YqjIxLFY+6FpffYP90iKmSYCGjiq+hSP8/GanXKe/9dZbn3766Ycffljuwq9vfNAP0Pcunzzym5v1SzjCAmGxci918YNeFx7670rV+7NKtXTh9VmbU+5cBVEZ392RVjeHshq3Wcxt73GLKm+wZV8r8Q32x8yK6j+elufVMmt7ym4Bun6gYyeA6Xs7/c9//nOl9dWv32gM0GGx8kHX+lo2KEBPkwAN5C82BlYL0O8NEqCLmkAXHs2Ou3Srm5tt/FQ31uNWvougP+hV33h1X5ENVhbbXj7+vFpmtUwpl7gwF2Ktb7QAXZTW11haxDQJ0EDO2q/C3HkJxxv3n3kuZOgjv/1wYf3Ko7/4p9glHEWN0oU3XaVwZ1atdx9wDKy+kV0/860/jPQxsPaH1Pi8WmZtTxGg51l76xvtEo6itL7G0iKmSYAGsrXr9wCU/4jw8d//KWToA0dX7l1cPnT6ucO/eb8foCt/RFjUCF34ymYXWB5wWun1kXd6xF5nWbkKc7BudXvjm2vt6MJryaC/WH8LlYfUvq/GDdYXq85qeV6RWUUJ0PNr19Y32h8RFqX1NZYWMU0CNJChAb+JdrSvsStqtC58ZSsU9j+9LXeH66UriVv60fLdyp/n1/8wv7zA9h8/lT53/vyzq+vvfjVgFx7bYH2xcsWeV8us8vT63KLEhdk0YOsb7WvsitL6GnenRUyTAA1kaPD/hTblf6SixljiwmwavPVN+R+pZF9axDQJ0EC3VLrwoqb5r7zVuEpcmDv11jflf+Wdd2kR0yRAA91S78J7tbp87CdvLP/qD49f/zhUuBHuhonVxdQslbgwdxpb3+pq73ros28vnru+FCrcCHcbr9xQ7aVFTJMADXRLYxeu5rEuz8b3QO84vWil9U20BOhpEqCBbtGFZ1OzEBcE6KFofROtWWgR3SFAA92iC8+mZiEuCNBD0fomWrPQIrpDgAa6RReeTc1CXCiu6GBAWt9EaxZaRHcI0EC36MKzKXFh7mh9Ey0tYpoEaKBbQh/zBFmYhbhgBHooWt9EzUKL6A4BGuiWap+To7W1tS+//DL8rM7ITvXoTp1roIdSPX4z7+xPT1UnzbbqK87ECNAAudnY2AjBLvyszmDcBOi8PffeanUSbBKgAbJy/vz5W7duhWAXfobb1dmMlQCdNwGaGAEaIB8HDx68ffv2iRMnQrALP8PtMKW6EOMjQOdNgCZGgAbIxzub9m0Fu/5dJkSAzpsATYwADZCJ8pBz8e0Q/QHpypKMi2/hyJsATYwADZCD/fv3N170XFwSHeZWpgO7EqCJEaABcrC+vl7+2o3yyGiYHub27zJGRqDzJkATI0AD5ODSpUsLCwv9u+Vrc8P0MLd/lzFyDXTeBGhiBGiADAl20+F1zpsATYwADZAhwW46vM55E6CJEaABMiTYTYfXOW8CNDECNECGBLvp8DrnTYAmRoAGyJBvh5gOr3PeBGhiBGgAgAYCNDECNECGjIxOh9c5bwI0MQI0QIZcmzsdXue8CdDECNAAGRLspsPrnDcBmhgBGiBDgt10eJ3zJkATI0ADZEiwmw6vc94EaGIEaIAMCXbT4XXOmwBNjAANkCHfDjEdXue8CdDECNAAAA0EaGIEaIAMGRmdDq9z3gRoYgRogAy5Nnc6vM55E6CJEaABMiTYTYfXOW8CNDECNECGBLvp8DrnTYAmRoAGyJBgNx1e57wJ0MQI0AAZEuymw+ucNwGaGAEaIEO+HWI6vM55E6CJEaABABoI0MQI0AAZMjI6HV7nvAnQxAjQABlybe50eJ3zJkATI0ADZEiwmw6vc94EaGIEaIAMCXbT4XXOmwBNjAANkCHBbjq8znkToIkRoAEyJNhNh9c5bwI0MQI0QIZ8O8R0eJ3zJkATI0ADADQQoIkRoAEyZGR0OrzOeROgiRGgATLk2tzp8DrnTYAmRoAGyJBgNx1e57wJ0MQI0AAZEuymw+ucNwGaGAEaIEOC3XR4nfMmQBMjQANkSLCbDq9z3gRoYgRogAz5dojp8DrnTYAmRoAGAGggQBMjQANkyMjodHid8yZAEyNAA2TItbnT4XXOmwBNjAANkCHBbjq8znkToIkRoAEyJNhNh9c5bwI0MQI0QIYEu+nwOudNgCZGgAbIkGA3HV7nvAnQxAjQABny7RDT4XXOmwBNjAANANBAgCZGgAbIkJHR6fA6502AJkaABsiQa3Onw+ucNwGaGAEaIEOC3XR4nfMmQBMjQANkSLCbDq9z3gRoYgRogAwJdtPhdc6bAE2MAA2QIcFuOrzOeROgiRGgATLk2yGmw+ucNwGaGAEaAKCBAE2MAA2QISOj0+F1zpsATYwADZAh1+ZOh9c5bwI0MQI0QIYEu+nwOudNgCZGgAbI0DdbimsMws/+FNPHO30f+RKgiRGgAQAaCNDECNAAAA0EaGIEaACABgI0MQI0AEADAZoYARoAoIEATYwADQDQQIAmRoAGAGggQBMjQAMANBCgiRGgAQAaCNDECNAAAA0EaGIEaACABgI0MQI0AEADAZoYARoAYN/S0//w+Noj5QoBunw3LFBdh64SoAEA9j12cSEk5pYKC1TXoasEaACAffcc2H/hxg/qubmoMCssUF2HrhKgAQB6WgahDT9TJkADAPTEBqENP1MhQAMA3NE4CG34mQoBGgDgjvogtOFn6gRoAIBtlUFow8/UCdAAANvKg9CGn2kkQAMA7NAfhDb8TCMBGgBgh2IQ2vAzMQI0AEDVYxcXDD8TI0ADAGPzRC6ePN2rbFSPE2kEaABgbC5fvrx68piaqQoHpXqcSCNAAwBjE7LayolFNVMlQI+dAA0AjI0APYMlQI+dAA0AjI0APYMlQI+dAA0AjI0APYMlQI+dAA0AjI0APYMlQI+dAA0AjI0APYMlQI+dAA0AjI0APYMlQI+dAA0AjE1jgF5dXTz92uLZtxfPXV8KFW6Eu2Fifcku1/r7337+/uv16aFOvv7JF3/5W1E3Xn+0vkB7CdBjJ0ADAGNTD9BPri2eu7Z0/ka1wsQwq572Euvk8bNXPvs2JW7uVbUE6KJOHn/9xtffjvCMBOixE6ABgLGpBOgQkevRuVzjzdBFxCzH0PX3P1k/PnTi3JMSoOeIAA0AjE05QK+uNo89lyssULmW4/SrSxf+uHThn5fOXFqqZ8H26mXQz66uzUlirpQAPUcEaABgbMoB+vRrO4af73/0rn6Vp4fFymkvROcnziyeemrxwnvDBegiX3707tn6rKLW3v2qf2lHP2effPbqR19/cmVzVm/i5tXGn399Z9w6hNqwwfDzzlpb0+/ssXRpcjm4h+mbd3uPp34lSWytIkD3H2RlX70VIwF6xwabIrgAPXYCNAAwNuUAffbt6vUbh589GKoyMSxWTnsXbh4ubly8OWSA7kXhhnxZVC+ebkXS4jrpIrwWa/Vu92+UcmoRnYtUemetrYTaW7F/e+elI0Wi/fzrr64829tIyMTbu46v1bKv8vKVJ7hj401rrQjQEyBAAwBjUw7Q9es3GgN0WKyc9i5+0AvQIT1XqhIK69USoOuzNqf0Au7OG71lyjm1cllFb2i5NjBcVHnJzcXupOfyvtrX2nVf9QBdJObyoHt9rRUBegIEaABgbNIDdFETCNA7Imw/jA4foO9sp/J1H+XLJxpT7NZ+o2u17Gtr3XqA3r5KZHuDtV0L0GMnQAMAY5N+CUdRowTo0oUZ1Vm1bJ04Al3fV20Euppie9Nb14rtq7R6c4Bu/J2hXAL02AnQAMDYpP8RYVEjBOiVzdBZHtNd6aXS7T8HbLxWePAAXf4jxer10Dv3W8++W1toWyu2r9LqDXG5fA10rATosROgAYCxSf8au6JGC9ArWymzfz1DOW4Wf6VXuXBi1wBdvjqiNoa99e0cn11dD0F2twDdvlb5S0JaHvmddUu/JFRWLM8qSoAeOwEaABibcoBemfo/Uhl7VS6rmNMSoMdOgAYAxqYSoFem/q+8x1sCNI0EaABgbOoBemXzWo7Tr/X+pvDc9aVQ4Ua423jlxqyVAE0jARoAGJvGAK32tgTosROgAYCxEaBnsATosROgAYCxEaBnsATosROgAYCxEaBnsATosROgAYCxEaBnsATosROgAYCxCVntCWaMAD12uwToAwcO/GTLj3/84+eff/7o0aPVhabioYceWltbK0/57ne/+6Mf/ag8ZVh33313/9kVLl68+J3vfKfYbNjjc889V10HAIirZjdmQ/U4kWagAH3vvffu24ybIVy+/PLLCwsL1eUmb3IB+uDBg9UZmwRoAADqhgjQhXPnzhWD0N/73vd++MMfvvLKK88888x9990XpoS7IXQWs1599dUQT8Pt1dXVYvkQu0MeDfn7zJkzxQZDAr646cUXX9y/f399geDw4cNh7ksvvfSDH/ygMUCHX6rCKufPny9y8FNPPXXixIligfAwwqPtL1+f1RigG0eg648trPvkk0+GKc8///yxY8fKWwAAIGNDBOiQcUOmDIk5JNf777+/GIoOs06dOhXya1hgZWWliJIh7IYAHZJouB1y56FDh/7+7/8+rPjoo4/ec889YbGQZfdtJuCw8bCRsJfGBR544IGwl7BYmBtydj1Ah9XDHotViqz88MMP91NvCLhHjhzpL1+fNWCAbnxsi4uLYY/h6YfVQ8QPD7W8EQAAcjVQgO7rXwO9vLxc5Mh9m8E6xOWQMh955JGnn346TAl5+vTp04899lhYPawSpjz++OPPPPNMf/kf//jH4WdIwC+99FIxsXGB48eP9/fyve99rx6gX3jhheJ2WDg8vBBwQyYOE0NkDxNDrg0PoL98fVb9Gugwtx6gGx9beLJhI+E5FqPvAAB0xEABunwJR2FlZeX73/9+/26IkiF3hlgZEmpIpSF3Hjly5Mknnwyp99SpU/s2x6QrUfX+++8PCbg/JNy4QHkvDz74YD1AX7x4sX83ZPGwyr7NTZ04cSLMLV+/UajMGnAEuvGxhenHjh0Lvx6EuyFe118iAACyNGKADtmxMgJdxNDz588fPnw4ROdwN8TQ1dXVkKHD9KNHj/aX7ysH6MYFyntZWFioB+hieDu45557frI5Ah1uHzp06Nlnnw2p97HHHisvX581YIBufGx9DzzwQNjmXn05CQAAUzZigA5J9JVXXnn44YdDZj116lRIkMX048ePv/jii8WVxyGGvvzyy0WoDSE1LF9cMx3mFgPV5QDduEB/L/fdd1+I5vUAHR5bSK7Fddhnzpzpz7p48eJLL71Uvn6jcdaAAbrxsS0vLz/99NNhSthU2Gb5YmsAADI2YoDet/UtHK+++uq5c+f6GfTBBx/8yeaVxOF2CLUXLlzoL//II4+EPBqWD2k7LLZv5wh04wL7Nv9WLwTW2LdwhCVDii2+CaQcl8PC9es3CuVZAwbofU2Pbf/+/U899VT4DSHs/Yknnrh78ytHAADI3i4Beu6EXBuSdEj2IXkPPgsAAAaUW4B++OGHX3nlleIvFwefBQAAA8otQAMAwEQJ0AAAMAQBGgAAhiBAAwDAEARoAAAYggANAABDEKABAGAIAjQAAAxBgAYAgCEI0AAAMIT/DyfWROZZnDkrAAAAAElFTkSuQmCC;" vertex="1" parent="1">
          <mxGeometry x="20" y="440" width="960" height="375" as="geometry" />
        </mxCell>
        <mxCell id="PmJEQbOTKtJchVZN6b2D-4" value="" style="shape=image;verticalLabelPosition=bottom;labelBackgroundColor=default;verticalAlign=top;aspect=fixed;imageAspect=0;image=data:image/png,iVBORw0KGgoAAAANSUhEUgAAAv4AAAF3CAIAAABSUNhjAAApT0lEQVR4Xu3d728c1b3H8fv31DWFOkBbxSF2oEBcss5PSJzEbWmAUGw/6BXqE0oqpLRSVFGrAYHypO4VLUhOxH2SPqAUpKv077pf+8TDeGZnvLtnz/nsOef90pHlnZndMzv7nXM+O7tO/msOAACgGP/VXAAAAJAvog8AACgI0QcAABSE6AMAAApC9AEAAAUh+gAAgIIQfQAAQEGIPgAAoCBEHwAAUBCiDwAAKAjRBwAAFIToAwAACkL0AQAABSH6AACAghB9AABAQYg+AACgIEQfAABQEKIPAAAoCNEHAAAUxCv6fHXYb37zG1toPzNefvDUoxpx31jO8lSWzwGAjlf0ceNaOVRDtqpfIITSxg0As8Yr+pRGFUFU/QIAkB+v6FPauzdVBFH1C4RQ2rgBYNZ4RZ/SpmTV81X1C4RAPQPQIvqMQfVuVdUvEEJp4waAWUP0ARAV4wYALaLPGFRXX1T9AiGUNm4AmDVEnzGonq+qXyAE6hmAllf0Ke1qhGrIVvULhFDauAFg1nhFn9KoIoiqXwAA8uMVfUp796aKIKp+gRBKGzcAzBqv6FPalKx6vqp+gRCoZwBaRJ8xqN6tqvoFQiht3AAwa4g+AKJi3ACgRfQZg+rqi6pfIITSxg0As4boMwbV81X1C4RAPQPQ8oo+pV2NUA3Zqn6BEEobNwDMGq/oUxpVBFH1CwBAfryiT2nv3lQRRNUvEEJp4waAWeMVfUqbklXPV9UvEAL1DECL6DMG1btVVb9ACKWNGwBmDdEHQFSMGwC0iD5jUF19UfULhFDauAFg1hB9xqB6vqp+gRCoZwBaXtGntKsRqiFb1S8QQmnjBoBZ4xV9SqOKIKp+AQDIj1f0Ke3dmyqCqPoFQiht3AAwa7yiT2lTsur5qvoFQqCeAWgRfcagereq6hcIobRxA8CsIfoAiIpxA4AW0WcMqqsvqn6BEEobNwDMGqLPGFTPV9UvEAL1DEDLK/qUdjVCNWSr+gVCKG3cADBrvKJPaVQRRNUvAAD58Yo+pb17U0UQVb9ACKWNGwBmjVf0KW1KVj1fVb9ACNQzAC2izxhU71ZV/QIhlDZuAJg1RB8AUTFuANAi+oxBdfVF1S8QQmnjBoBZQ/QZg+r5qvoFQqCeAWh5RZ/SrkaohmxVv0AIpY0bAGaNV/QpjSqCqPoFACA/XtGntHdvqgii6hcIobRxA8Cs8Yo+pU3Jquer6hcIgXoGoEX0GYPq3aqqXyCE0sYNALOG6AMgKsYNAFpEnzGorr6o+gVCKG3cADBriD5jUD1fVb9ACNQzAC2v6FPa1QjVkK3qFwihtHEDwKzxij6lUUUQVb8AAOTHK/qU9u5NFUFU/QIhlDZuAJg1XtGntClZ9XxV/QIhUM8AtIg+Y1C9W1X1C4RQ2rgBYNYQfQBExbgBQIvoMwbV1RdVv0AIpY0bAGYN0WcMquer6hcIgXoGoOUVfbK/GrGxsbG4uFjdrA/ZttzWVjenS9UvEEH24waAGecVfbK3ubm5vb1d3axHEFtua6ub06XqFwCA7HlFn+zfvc3Pz+/s7KytrbmbVQSxJbbc1n636VSp+gUiyH7cADDjvKJPCZ/Zr6ys7O7uLiwszB08X/vdltjyxpbTpeoXCK2EcQPALCP6HO3WvrmDd6vVzdBU/QJBFTJuAJhZRJ+j1S+31C/GhKbqFwiqkHEDwMwi+ozEfcnm3XffrX8FJwJVv0A45YwbAGYT0WdU29vb9nzrf3gVh6pfIJCixg0AM8gr+mTwlxonTpw4N5r19fUHDx7Yz+aKwFT9jsUOY/PI4sDoNVaI27dvNxcVjHMHiM8r+mTAhp6fr19dPfMybeJ248YNO4zNI4sD1Bitq3HuABJe0SeDqz427tgANFhZok3c3JvX5pHFAWqM1tU4dwAJr+iTwWf2TEv+jeG7HzVG62qcO4AE0YdpybcxfPejxmhdjXMHkCD6MC35NobvftQYratx7gASRB+mJd/G8N2PGqN1Nc4dQILow7Tk2xi++1FjtK7GuQNIeEUf/sKLNmD4Pgo1RutqnDuAhFf0yUDXtLS6unTxnaXL7y9d+eOyNfvFbtrC9pbh2ubdR5/f3Wovj9zObN374p//ce3O1sn2Bgzf/aixI9uRNdbT3H0//eBye9W47cjdmGJfrnHuABJe0SfXqz7n15eu/GF57U6z2UJb1R6/PNuZ05ff++xRe8ydkWnJtTOnt+48fDR0PmD4djY2NjY3N+fn5xvLqbER29Aasz2sdttae2+nHkeG7sbjVdPui3MHkPCKPll+18cmnvaEVG/TnZncOFsf0Dfv3ts8vTfszv605BrDt7O4uLi9vb2zs7OyslJfTo2N2IbWWH0PHz+Rz26v7+98oDZ0NwI1zh1AguhzaFpaXR3+XrzebIPGpxIXby5f/XD56p+XL20st0e3/rY3sncM5bM/LbnG8F23tra2u7t769athYUFt4QaG7ENrbHGHp7Zuvf5wy/fuz7kuUyrDd2NQI1zB5Ag+hyali6+c+jt+LGT36tafbltVh+/bEI6d2np7IWlq38Zb1pyg2zX9XM36K9/8OXjS/2HZ6/69xLqq+xe9oDVxwSfP3z8/r5/VfMBW9Nhz3zA8N1goceijwUgi0Fz1FjXA45WY8Oiz+PH7PlqztR3I1BfnDuABNHn0LR0+f3mJxGnri9Yayy0zerj19WPTrlfrn005rR0/fanrUG2am4wdcNlYwLbu2PjU4CDmz336lllk993M8r+90Iaw/TQ+cA1hu+hVlZWdnZ2tre319fXqbHBpDVWjz6N3ei/V203DvU12W70rPJ5ypw7gIRv9HHfdLafXx2WyvLbt2/Xp6X2JxFDpyXbrD5+Xft4b1qyOanR6tsMbUdOS/WBsnGza8uee3WtcoNy/cJA/b314yXDBn3XbOy2w9g4sF0HvLTl9+/f/9vf/kaNTVxjLlhUrf1Euu5V342qr4l3o2eVz1Pm3GG553JMxiv6ZKBx1Weyacm1mNNS4w926tfSe+7VtcoN6PVH23vAkecD3rkO1XXVhxobq8YaD9huo9yr+obQxLvRs8rnKXPuABJEnyl84OXaJNOSuwY+2ldQa0Nq816jzD09q4YO6I3Wsw3Dd0P/d32osa42dJvGA7bbKPeqXfUZsvEoD9izyucpc+5gYlz18UH0mcJXUF2bYFoa7A/K9ffTg72h8/H7wu4h9dCXBhqP0HWv/lX1LyUMbT3jOMN33ZF/4UWNVWsbbWiN+Ucft8HQ798MbUMfsGeVz1Pm3MHEvkr/u7ZCRJ8p/OGxa5NNS4OD8bS6JF4NrD1DqvsU4/El9M9ub9oIO8Lc07NqsD9MH7oyX7tXfXljEh0wfB8Y8d/1ocbahdRTY41HqLf+e9WXN8LKZLvRs2qCp+wa5w4mRvTxQfQR/3NzGTSGb2f0f82ZGgvdegLTTDXOHUyM6OOD6NOclgbR/5OB1BvDdz9qLH4j+iB7RB8fRJ8h09JgNv5ryVQaw3c/aix+I/oge0QfH0Sf4dMSbfTG8N2PGqN1tXP5/rs+CI3j7IPow7Tk24g+/agxWlfj3AEkiD5MS76N4bsfNUbralmeO1yNiIPj7IPow7Tk27IcvqeIGqN1tSzPna/4DkoUHGcfRB+mJd+W5fA9RdQYratlee4wJcfBcfZB9Dl348YNNwBhMu4ANo8sDlSHCGjI8txhSo6D4+yj9Ohz4sSJ5mg0Y9bX1x88eGA/mysCG6tfO4zNI4sDs19jMY1VVyXI79xhSo6D4+yj9Ogz+7a3t63E7WdzRWCqfpE36ip7TMlxcJx9EH1m2tra2s7OjpW4/XT/DXgcqn6RN+qqBPzlURwcZx9En9m1sLCwu7u7srJiJW4/7ffqPwMPqurXpqiY/SJvqnoGgAaiz+y6ta/rZjhVR+5dRbR+kTdVPSMyrkbEwXH2QfSZUfW3xa7EqzfNjS2nq/12PE6/yJuqnhEf30GJg+Psg+gzi+bn5+tfhqhK3H1VwtZ+t+lUNfqt3lWE7hd5U9UzJJiS4+A4+yD6zKLNzc36n8DUS9yW29rq5nSp+kXeqKuiMCXHwXH2QfSZRRsbG4uLi9XNeonbcltb3ZwuVb/IG3VVFKbkODjOPog+CVCVuKpf5I26yhuvbxwcZx9EnwSoSlzVL/JGXeWNvzyKg+Psg+iTAFWJM0UhBFU9A4BD9EEnpigA42LciIPj7IPokwBKHDmhnvPG1eI4OM4+iD4JUJU4UxRCUNUz4uD1jYPj7IPokwBViav6Rd6oq7zx+sbBcfZB9EmAqsRV/SJv1FXeeH3j4Dj7IPokQFXiqn6RN+oqb7y+cXCcfRB9EqAqcVW/yBt1lTe+IxgHx9kH0ScBqhJnikIIqnoGAIfog05MUQDGxbgRB8fZB9EnAZQ4ckI9542rxXFwnH0QfRKgKnGmKISgqmfEwesbB8fZB9EnAaoSV/WLvFFXeeP1jYPj7IPokwBViav6Rd6oq7zx+sbBcfZB9EmAqsRV/SJv1FXeeH3j4Dj7IPokQFXiqn6RN+oqb3xHMA6Osw+iTwJUJc4UhRBU9QwADtEHnZiiAIyLcSMOjrMPok8CKHHkhHrOG1eL4+A4+yD6JEBV4kxRCEFVz4iD1zcOjrMPok8CVCWu6hd5o67yxusbB8fZB9EnAaoSV/WLvFFXeeP1jYPj7IPokwBViav6Rd6oq7zx+sbBcfZB9EmAqsRV/SJv1FXe+I5gHBxnH0SfBKhKnCkKIajqGQAcog86MUUBGBfjRhwcZx9EnwRQ4sgJ9Zw3rhbHwXH2QfRJgKrEmaIQgqqeEQevbxwcZx9EnwSoSlzVL/JGXeWN1zcOjrMPok8CVCWu6hd5o67yxusbB8fZB9EnAaoSV/WLvFFXeeP1jYPj7IPokwBViav6Rd6oq7zxHcE4OM4+iD4JUJU4UxRCUNUzADhEH3RiigIwLsaNODjOPog+CaDEkRPqOW9cLY6D4+yD6JMAVYkzRSEEVT0jDl7fODjOPog+CVCVuKpf5I26yhuvbxwcZx9EnwSoSlzVL/JGXeWN1zcOjrMPok8CVCWu6hd5o67yxusbB8fZB9EnAaoSV/WLvFFXeeM7gnFwnH0QfRKgKnGmKISgqmcAcIg+6MQUBWBcjBtxcJx9EH0SQIkjJ9Rz3rhaHAfH2QfRJwGqEmeKQgiqekYcvL5xcJx9EH0SoCpxVb/IG3WVN17fODjOPog+CVCVuKpf5I26yhuvbxwcZx9EnwSoSlzVL/JGXeWN1zcOjrMPok8CVCWu6hd5o67yxncE4+A4+yD6JEBV4kxRCEFVzwDgEH3QiSkKwLgYN+LgOPsg+iSAEkdOqOe8cbU4Do6zD6JPAlQlzhSFEFT1jDh4fePgOPsg+iRAVeKqfpE36ipvvL5xcJx9EH0SoCpxVb/IG3WVN17fODjOPog+CVCVuKpf5I26yhuvbxwcZx9EnwSoSlzVL/JGXeWN7wjGwXH2QfRJgKrEmaIQgqqeAcAh+qATUxSAcTFuxMFx9kH0SQAljpxQz3njanEcHGcfRJ8EqEqcKQohqOoZcfD6xsFx9kH0SYCqxFX9Im/UVd54fePgOPsg+iRAVeKqfpE36ipvvL5xcJx9EH0SoCpxVb/IG3WVN17fODjOPog+CVCVuKpf5I26yhvfEYyD4+yD6JMAVYkzRSEEVT0DgEP0QSemKADjYtyIg+Psg+iTAEocOaGe88bV4jg4zj6IPglQlThTFEJQ1TPi4PWNg+Psg+iTAFWJq/pF3qirvPH6xsFx9kH0SYCqxFX9Im/UVd54fePgOPsg+iRAVeKqfpE36ipvvL5xcJx9EH0SoCpxVb/IG3WVN74jGAfH2QfRJwGqEmeKQgiqegYAh+iDTkxRAMbFuBEHx9kH0ScBlHg4g8Hg3Rq72dwC0+MO8ieffOJ+aa7G9AgLm6vFcXCcfRB9EqAq8RIil80K39YwHwflDrLVs/uluRrTIyxs1XhVGo6zD6JPAlQlruo3JuEMUSB3kIk+EQgLu4RxYxZwnH0QfRKgKnFVvzEJZ4gCuYNM9IlAWNgljBuzgOPsg+iTAFWJq/qNSThDFMgdZKJPBMLCLmHcmAUcZx9EnwSoSlzVb0zCb4MWyB1kqyv3S3M1pkdY2CV8R3AWcJx9EH0SoCrxEqJP2zMvXl/+1TYtXPvdh39vL6RNq1kBN2sawGFEH3RSRS4tmzzO/Pf/vPTqTRotufbK7//PCrhZ03GVOW7Ex3H2QfRJACUek80cNoUMVpZotOSau/DTKOn5+fnNzc2NjY3G8kDKvFocH8fZB9EnAaoSLzNyEX1o6bZ29FlZWdnZ2dne3l5cXKwvD0c1XpWG4+yD6JMAVYmr+tUi+tDSbfXos7CwcOvWrd3d3bW1tcM1HlaZ40Z8HGcfRJ8EqEpc1a8W0YeWbquij8UdCz0WfSwANUs8sDLHjfg4zj6IPglQlbiqXy2iDy3dZtV7duvj7e3tnZ2dlZWVZnFHUea4ER/H2QfRJwGqEv9qn/vGj/10Nyu5Lv/dh38n+tASbRZ97v/vw/v37z/55JPt2u6q+akvn0N4HGcfRJ8EUOIxcdWHlm6bhas+wOwj+gCHdEWf1dWli+8sXX5/6cofl63ZL3bTFra3DNc27z76/O5We3nkdmbr3hf//I9rd7ZOtjcI1+pHQLgbM9tm4bs+iIO3xD6IPgmgxEPY2NjY3Nycn59vLB8afc6vL135w/LanWazhbaqPQN5tjOnL7/32aP2vD4j0ce1M6e37jx8VM8cZ67f/rSxZOve5w+/fO/61HJJ+wi0d8OndR35idv+Ebi3edr3carW/4Cz8BdeiOMr0Rch8kD0SQAlHsLi4uLQzwXa0cfCTTv01Nt004+by+sT/Obdx1Nde+IXtnbmSD369Bz5iVt/Upmg9T9gPfo48f9dH8TBvOCD6JMASjyc9ucCjeizujr8ek+92QaNT74u3ly++uHy1T8vX9pYbs9P/W1vdv/s9vqwua098QtbO3OkHn16jvzErT+pTND6H7Adfeai/2vOiIN5wQfRJwGUeDjvvvvut99++/XXX9tB/ve//203G9Hn4juHLvkcO/m9qtWX22b1GchCz7lLS2cvLF39y3jRx03kn35wub1qcDDxr3/wpfs4pjFP17/7Ul9l97IHtJ+PV9Umzp5VzQdsRa525jgy+kywh417tfekvRvte9XvsrdLe13v3cutdfftP/LWqsM+4s7Xt69a/fGH7qE7htXjuw/g3GMe+YCDWvRxhV2xm83SR+KYF3wQfRJAiYdTzRDffPPNv/71r3/84x9ntz6uR5/L7zc/7Tp1fcFaY6FtVp+Brn50yv1y7aMxo08rPdSbm1/dNNmYqvfuWE2fhz+46blXzyqbaKtZ/PEEfFTmcDvfmJur6DPZHtZ3w2155G407tXYeRc4qr2qtjzyyDcf8CCd9Oy8627oRZq+Paw9SOPp9zyga0SfcjAv+CD6JEBV4o//sY59R/5LHoku/+STT749uOrj3P/fh/Xo0/60a2j0sc3qM9C1j/eij+WeRmvPVY129ARcm/jbOWDoqp57da1yk3H/FN7OHO2d7/nAa7TdaHbRfsrtbfp3vnkham+f9262d/67u7dWVfcatHapcbN93PYW9u7hweM/unN3yNEb+oBVs9zzuw//XivwPVbeFn3axd91UrB83OVzCm43MBmiTwJUJa46pWM68qrPZNHHtZjRp/GnSdV1iP57da1yeaJ1/cYr+kywh+0HHC369O18V3Ro93V41aEIUu+0a+cfbzmsu/49rO74xbA/MRv6gFXjqk98JYyT+SH6oJMqcsV05Hd9JvvAy7VJos/hD1MarWuWbd9rlHzTs6qdJ9qtvU07PVTRZ7I9bHcxevTp2vmu6NDew+9WtZ+X71Wfvj3c28A9/laz364HrBrRJz5V9ClhfA6H6JMASjycI//Ca7KvObs2QfQZ7M9t9Ssig73Z9PFU1zXLNr8scvgRuu7Vv6r9LZNGa8/fQyJCI/pMtof7caS6aHRk9Bn07nxPdDjiyFfXjQ4/l56d39u4dUxc69vD/bu4j8Pql836H9C1oX/hhaBU47MqcuWB6JMAVYmrTuk4Rvx3fSb743bXJos+g4PpvPoopJrnemZZNyM+/ujks9ubNrOOMDf3rBq0/kapfq/68mpVe1Y+9IHXRHtYPxSWBvYSw1G74VrXzvdEn0Z3Xxz+vKneXdfetm8ODu9J/fs9Q/dwWPza67e+J10POCD6lEQ1L+SB6JMAVYmr+o1j9H/NOfI/aUijTdyIPvGp3iLmPT6HRvRJgKrEVf1qtaPPIPp/ZEGjTdaIPvGpxklVv3kg+iRAVeKqfrWGRp/BbPz3pTRafyP6xKcaJ1X95oHokwBViav61eqKPjTa7DeiT3yqcVL1QVseiD4JUJW46pTWIvrQ0m1En/jKHCdTR/RBJ1Xk0iL60NJtRJ/4VNGnzPF5Wog+CaDEYyL60NJtRJ/4VOOzKnLlgeiTAFWJq05pLaIPLd1G9CmHal7IA9EnAaoSV/WrZTPHK7//PzeF0GhpNVe6zZpGSKq3iGWOz9NC9EmAqsRV/Wo98+L19oySZfvdh39vLwzdzm59vPvlQ/vZXkWbSrMCbtY0QlKNk6p+80D0SYCqxFX9Ig7J67u9vW392s/mCiBNkvNoTtdvHog+CVCVuKrfmAaDwbs1drO5Rb7iv75/+tOfHjx4YP3aT/u9uRrTU3JhRxb/PHJUH7TlgeiTAFWJq07pmGxW+LbGbja3yFfk13dhYcF6/Oabb77++mv7ab/bkuZGmJKSCzuyyOcRpoLog06qyBVTyTNE5CH71q1bFnqqQ22/25LmRpiSkgs7ssjnUaWE8Tkcok8CKPFwSp4hYg7ZKysru7u77iBXAciW2PLmppiGkgs7MtX4HPP8zQ/RJwGqEled0jGVPENEe33n5+d3dnbW1tbcQbZ6dr/YEltua5t3gLeSC7sQqnkhD0SfBKhKXNVvTHwbNILNzU33J13uIFtduV/m9v/gy9Y27wBvFHY00d5CNJQwPodD9EmAqsRV/SKOaEP2xsbG4uJidbNeV7bc1lY3geSoxklVv3kg+iRAVeKqfhGH6vVV9QuEoKpnVb95IPokQFXiqn4Rh+r1VfULhKCq52hXbbNE9EmAqsRVpzTiUL2+qnoGQlCdR/BB9EEnpqi8MWQD/lTnEeOzD6JPAihxhMCQDfhT1bPq/M0D0ScBqhJXndKIQ/X6quoZyAnnkQ+iTwJUJa7qF3mjrpAT3kKkiOiTAFWJq/pFHAzZgD9VPav6zQPRJwGqElf1izhUr6+qXyAEVT2r+s0D0ScBqhJX9Ys4VK+vql8gBFU9q67a5oHokwBViatOacShen1V9QyEoDqP4IPog05MUXljyAb8qc4jxmcfRJ8EUOIIgSEb8KeqZ9X5mweiTwJUJa46pRGH6vVV1TOQE84jH0SfBKhKXNUv8kZdISe8hUgR0ScBqhJX9Ys4GLIBf6p6VvWbB6JPAlQlruoXcaheX1W/QAiqelb1mweiTwJUJa7qF3GoXl9Vv0AIqnpWXbXNA9EnAaoSV53SiEP1+qrqGQhBdR7BB9EHnZii8saQDfhTnUeMzz6IPgmgxBECQzbgT1XPqvM3D0SfBKhKXHVKIw7V66uqZyAnnEc+iD4JUJW4ql/kjbpCTngLkSKiTwJUJa7qF3EwZAP+VPWs6jcPRJ8EqEpc1S/iUL2+qn6BEFT1rOo3D0SfBKhKXNUv4lC9vqp+gRBU9ay6apsHok8CVCWuOqURh+r1VdUzEILqPIIPog86MUXljSEb8Kc6jxiffRB9EkCJIwSGbMCfqp5V528eiD4JUJW46pRGHKrXV1XPQE44j3wQfRKgKnFVv8gbdYWc8BYiRUSfBKhKXNUv4mDIBvyp6lnVbx6IPglQlbiqX8Shen1V/QIhqOpZ1W8eiD4JUJW4ql/EoXp9Vf0CIajqWXXVNg9EnwSoSlx1SiMO1eurqmcgBNV5BB9EH3RiisobQzbgT3UeMT77IPokgBJHCAzZgD9VPavO3zwQfRKgKnHVKY04VK+vqp6BnHAe+SD6JEBV4qp+kTfqCjnhLUSKiD4JUJW4ql/EwZAN+FPVs6rfPBB9EqAqcVW/iEP1+qr6BUJQ1bOq3zwQfRKgKnFVv4hD9fqq+gVCUNWz6qptHog+CVCVuOqURhyq11dVz0AIqvMIPog+6MQUlTeGbMCf6jxifPZB9EkAJY4QGLIBf6p6Vp2/eSD6JEBV4qpTGnGoXl9VPQM54TzyQfRJgKrEVf0ib9QVcsJbiBQRfRKgKnFVv4iDIRvwp6pnVb95IPokQFXiqn4Rh+r1VfULhKCqZ1W/eSD6JEBV4qp+EYfq9VX1C4SgqmfVVds8EH0SoCpx1SmNOFSvr6qegRBU5xF8EH3QiSkqbwzZgD/VecT47IPokwBKHCEwZAP+VPWsOn/zQPRJgKrEVac04lC9vqp6BnLCeeSD6JMAVYmr+kXeqCvkhLcQKSL6JEBV4qp+EQdDNuBPVc+qfvNA9EmAqsRV/SIO1eur6hcIQVXPqn7zQPRJgKrEv9rnrg3YT3ezwvIMls8pqPoFQlDVszujMRmiTwIoceSEekZOVNEHPog+AABMSBV9eAvhg+iTAEocOaGekRNVPasiVx6IPgmgxJET6hnwx3nkg+iTAEocOaGekROu+qSI6JMAShw5oZ6RE1U9q/rNA9EnAZQ4ckI9Iyeqelb1mweiTwIoceSEekZOVPWs+qAtD0SfBFDiyAn1jJyoog98EH0AAJiQKvrwFsIH0ScBlDhyQj0jJ6p6VkWuPBB9EkCJIyfUM+CP88gH0ScBlDhyQj0jJ1z1SRHRJwGUOHJCPSMnqnpW9ZsHok8CKHHkhHpGTlT1rOo3D0SfBFDiyAn1jJyo6ln1QVseiD4JoMSRE+oZSdvY2FhcXKxu1qOPLbe11c3pavRbF7TfLBF9AAAY1ebm5vb2dnWzHn1sua2tbk5Xo9/6W4ig/WaJ6JMA3iUjJ9QzkjY/P7+zs7O2tuZuVvVsS2y5rf1u06lq9FtFrtD9ZonokwDVZ8lACNQzUreysrK7u7uwsFAtsd9tiS3/bqMA6v268yhOv/kh+iSAqQI5oZ6RgVv75g6u+lQ3Q6s6cudRtH4zQ/RJAFMFckI9IwPV5Rar5/ZFoHBU/WaG6JMApgrkhHpGHtyXbKye61/BiUDVb06IPglgqkBOqGdkY3t72+q5/odXcViP9+/fj99vNog+CeAvYpAT6hn+zs2G9fX1Bw8e2M/misCsx7/+9a/x+50pzZoYB9EHAJCY3/72t6tnXqYV26wAmjUxDqJPAniXjJxQz/BnM99gZYlWbCP65I/vRiAn1DP8EX0Kb0Sf/DFVICfUM/wRfQpvRJ/8MVUgJ9Qz/BF9Cm9En/wxVSAn1DP8EX0Kb0Sf/DFVICdWz+6bzvbzq8NYzvIRlxN9Cm9En/y58x8A4BB9Cm9EHwBAWYZGn9XVpYvvLF1+f+nKH5et2S920xa2twzXNu8++vzuVnt55HZm694X//yPa3e2TrY3CNfqRyDcbhB98sdVHwCoa0ef8+tLV/6wvHan2WyhrWrPnZ7tzOnL7332qD2vz0j0ce3M6a07Dx/VM8eZ67c/bSzZuvf5wy/fuz61XNI+Au3d8G9En/x9xXd9AKCmEX0s3LRDT71NN/24ubw+wW/evbd5em9qb0/8wtbOHEQfh+iTAKIPANTVo8/q6vDrPfVmGzQ++bp4c/nqh8tX/7x8aWO5PbP2t73Z/bPb6/tZZ8gqog/RB/6IPgBQV48+F985dMnn2MnvVa2+3Darz50Wes5dWjp7YenqX8aLPm4i//SDy+1Vg4OJf/2DL90HYY2EVP/uS32V3cse0H4+XvXw8TWk/lXNB2xFrnbmODL6TLCHjXu196S9G+171e+yt0t7Xe/dy61t35fokz+iDwDU1aPP5febn3adur5grbHQNqvPnVc/OuV+ufbRmNGnlR7qzYUDN5E3QtLeHavv/x7+yKznXj2rLGBVEcR99+jIzOF2vh5T9h78IPpMtof13XBbHrkbjXs1dt5FomqvGo/vGtEnf+7fsZjr+PctWM5ylrO8tOX16NP+tGto9LHN6nPntY/3oo/lnkarbzO0HRl96hN/OwcMXdVzr65VLi7ULz7tX785fDGmlTnaO9/zgddou9Hsov2U29v073zzQtTePjf3kOgDACiLf/RxLWb0afxRWP1Tnp57da1yeaJ1/cYr+kywh+0HHC369O18O8O1G9EHAFAW/w+8XJsk+rhPZ0b7mnPjIk3j2zNHBoueVe080W7tbdpJpYo+k+1hu4vRo0/XzhN9AABo8v+as2sTRJ/B/txcvyIy2Jvvh/9xezP6HKxqPELXvfpXDf0STL21E8bR0WeyPdwPTNVFoyOjz6B354k+AAA0+f9xu2uTRZ/BwXRefVhTzes9EaH+FWPLCps2948YLDpWDfYDxKHPjGr3qi+vVvVEn2rtuHtYPxSffnB5L9MctRuude080QcAgKZ69BlE/ycNafJG9AEAlKURfQbR/yMLmrYRfQAAZWlHn8Fs/PeltDiN6AMAKMvQ6EMrpxF9AABlIfoU3og+AICyEH0Kb0QfAEBZiD6FN6IPAKAsRJ/CG9EHAFAWm/nOoWBho8+TTz756wNvv/3266+//uKLLzY3iuInP/nJ+vp6fcmPf/zjX/7yl/Ul4/r+979fPTvn2rVrP/rRj9zDWo8///nPm/cBAKg1Z0KUp1kT4xgp+vzgBz+Y2w8KFgvefPPNxcXF5nbhhYs+CwsLzRX7iD4AAORnjOjjXLlyxV34ee65537xi1+89dZbr7322lNPPWVL7KbFBbfq5s2bFizs99XVVbe9BSZLEpacLl265B7Qssu1fTdu3Jifn29vYE6dOmVr33jjjVdeeWVo9LHoZ3dZW1tzCebChQsrKytuA9sN29tq+/aqodFn6FWf9r7Zfc+fP29LXn/99Zdffrn+CAAAYGaNEX0snVgasKxjmePYsWPu8o+tOnv2rCUP22AwGLgQYDHFoo9lCPvdEsPTTz/9wx/+0O548uTJJ554wjazFDK3n13swe1BrJehGzzzzDPWi21may0htaOP3d16dHdxKef48eNVXrFo8vzzz1fbt1eNGH2G7tvS0pL1aE/f7m7hzHa1/iAAAGA2jRR9KtV3fV566SWXAOb2I5EFHcsHJ06cePXVV22JJaGLFy++8MILdne7iy356U9/+tprr1Xbv/322/bTsssbb7zhFg7d4PTp01Uvzz33XDv6/OpXv3K/28a2exZNLM3YQgtbttASie1AtX17Vfu7Pra2HX2G7ps9WXsQe47uihcAAEjCSNGn/oGXMxgMfvazn1U3LQRYYrBAYNnC8oQlhueff/78+fOWV86ePTu3fx2oETKOHTtm2aW6DDN0g3ovzz77bDv6XLt2rbppKcruMrf/UCsrK7a2/mmX01g14lWfoftmy19++WULdnbTglH7EAEAgBk0YfSxWb9x1ccFiLW1tVOnTlnosZsWIFZXVy392PIXX3yx2r5Sjz5DN6j3sri42I4+7pKSeeKJJ369f9XHfn/66aevX79ueeWFF16ob99eNWL0GbpvlWeeecYeU/WHbwAAYCwTRh/LEG+99dbx48ctbZw9e9bmfrf89OnTN27ccN+wsQDx5ptvujhi8cK2d98NsrXu4lA9+gzdoOrlqaeeslDVjj62b5Y53PeNLl26VK26du3aG2+8Uf+0a+iqEaPP0H176aWXXn31VVtiD2WPWf9SEQAAmFkTRp+5g7/wunnz5pUrV6r08Oyzz/56/xsz9rvFkatXr1bbnzhxwpKEbW85yTabO3zVZ+gGc/vfJrao0fUXXral5Q/3V2b1oGMbtz/tcuqrRow+c8P2bX5+/sKFC5btrPdz5859f//P2QAAwIw7IvokxxKJZSDLZJaZRl8FAAAKkVv0OX78+FtvveW+Wz36KgAAUIjcog8AAEAPog8AACgI0QcAABSE6AMAAApC9AEAAAUh+gAAgIIQfQAAQEGIPgAAoCBEHwAAUBCiDwAAKMj/A4uEauyLjJEiAAAAAElFTkSuQmCC;" vertex="1" parent="1">
          <mxGeometry x="20" y="1480" width="766" height="375" as="geometry" />
        </mxCell>
        <mxCell id="PmJEQbOTKtJchVZN6b2D-5" value="" style="rounded=0;whiteSpace=wrap;html=1;fillColor=#B4E8B3;strokeColor=#82b366;" vertex="1" parent="1">
          <mxGeometry x="850" y="1517.5" width="690" height="300" as="geometry" />
        </mxCell>
        <mxCell id="PmJEQbOTKtJchVZN6b2D-6" value="Channel" style="text;html=1;strokeColor=none;fillColor=none;align=center;verticalAlign=middle;whiteSpace=wrap;rounded=0;fontSize=15;fontStyle=1" vertex="1" parent="1">
          <mxGeometry x="860" y="1527.5" width="60" height="30" as="geometry" />
        </mxCell>
        <mxCell id="PmJEQbOTKtJchVZN6b2D-7" value="" style="rounded=0;whiteSpace=wrap;html=1;fontSize=15;fillColor=#FFEB9C;strokeColor=#d6b656;" vertex="1" parent="1">
          <mxGeometry x="880" y="1647.5" width="630" height="150" as="geometry" />
        </mxCell>
        <mxCell id="PmJEQbOTKtJchVZN6b2D-8" value="ChannelPipeline" style="text;html=1;strokeColor=none;fillColor=none;align=center;verticalAlign=middle;whiteSpace=wrap;rounded=0;fontSize=15;fontStyle=1" vertex="1" parent="1">
          <mxGeometry x="1140" y="1647.5" width="130" height="30" as="geometry" />
        </mxCell>
        <mxCell id="PmJEQbOTKtJchVZN6b2D-9" value="" style="rounded=0;whiteSpace=wrap;html=1;fontSize=15;fillColor=#dae8fc;strokeColor=#6c8ebf;" vertex="1" parent="1">
          <mxGeometry x="900" y="1692.5" width="180" height="95" as="geometry" />
        </mxCell>
        <mxCell id="PmJEQbOTKtJchVZN6b2D-10" value="" style="rounded=0;whiteSpace=wrap;html=1;fontSize=15;fillColor=#dae8fc;strokeColor=#6c8ebf;" vertex="1" parent="1">
          <mxGeometry x="1105" y="1692.5" width="180" height="95" as="geometry" />
        </mxCell>
        <mxCell id="PmJEQbOTKtJchVZN6b2D-11" value="" style="rounded=0;whiteSpace=wrap;html=1;fontSize=15;fillColor=#dae8fc;strokeColor=#6c8ebf;" vertex="1" parent="1">
          <mxGeometry x="1310" y="1692.5" width="180" height="95" as="geometry" />
        </mxCell>
        <mxCell id="PmJEQbOTKtJchVZN6b2D-12" value="ChannelHandlerContext" style="text;html=1;strokeColor=none;fillColor=none;align=center;verticalAlign=middle;whiteSpace=wrap;rounded=0;fontSize=15;fontStyle=1" vertex="1" parent="1">
          <mxGeometry x="925" y="1692.5" width="130" height="30" as="geometry" />
        </mxCell>
        <mxCell id="PmJEQbOTKtJchVZN6b2D-13" value="ChannelHandlerContext" style="text;html=1;strokeColor=none;fillColor=none;align=center;verticalAlign=middle;whiteSpace=wrap;rounded=0;fontSize=15;fontStyle=1" vertex="1" parent="1">
          <mxGeometry x="1130" y="1692.5" width="130" height="30" as="geometry" />
        </mxCell>
        <mxCell id="PmJEQbOTKtJchVZN6b2D-14" value="ChannelHandlerContext" style="text;html=1;strokeColor=none;fillColor=none;align=center;verticalAlign=middle;whiteSpace=wrap;rounded=0;fontSize=15;fontStyle=1" vertex="1" parent="1">
          <mxGeometry x="1335" y="1692.5" width="130" height="30" as="geometry" />
        </mxCell>
        <mxCell id="PmJEQbOTKtJchVZN6b2D-15" value="ChannelHandler" style="rounded=0;whiteSpace=wrap;html=1;fontSize=15;fillColor=#f0a30a;fontStyle=1;fontColor=#000000;strokeColor=#BD7000;" vertex="1" parent="1">
          <mxGeometry x="920" y="1727.5" width="140" height="50" as="geometry" />
        </mxCell>
        <mxCell id="PmJEQbOTKtJchVZN6b2D-16" value="ChannelHandler" style="rounded=0;whiteSpace=wrap;html=1;fontSize=15;fillColor=#f0a30a;fontStyle=1;fontColor=#000000;strokeColor=#BD7000;" vertex="1" parent="1">
          <mxGeometry x="1125" y="1727.5" width="140" height="50" as="geometry" />
        </mxCell>
        <mxCell id="PmJEQbOTKtJchVZN6b2D-17" value="ChannelHandler" style="rounded=0;whiteSpace=wrap;html=1;fontSize=15;fillColor=#f0a30a;fontStyle=1;fontColor=#000000;strokeColor=#BD7000;" vertex="1" parent="1">
          <mxGeometry x="1330" y="1727.5" width="140" height="50" as="geometry" />
        </mxCell>
      </root>
    </mxGraphModel>
  </diagram>
</mxfile>
